<?xml version="1.0" encoding="utf-8"?>
<!-- Generator: Adobe Illustrator 21.0.0, SVG Export Plug-In . SVG Version: 6.00 Build 0)  -->
<svg version="1.1" id="Layer_1" xmlns="http://www.w3.org/2000/svg" xmlns:xlink="http://www.w3.org/1999/xlink" x="0px" y="0px"
	 viewBox="0 0 757.5 220.5" style="enable-background:new 0 0 757.5 220.5;" xml:space="preserve">
<style type="text/css">
	.st0{stroke:#000000;stroke-width:3;stroke-miterlimit:10;}
	.st1{fill:#4D59A8;}
	.st2{fill:none;stroke:#000000;stroke-miterlimit:10;}
	.st3{fill:#597DBF;stroke:#000000;stroke-width:3;stroke-miterlimit:10;}
	.st4{fill:#89D3E3;stroke:#000000;stroke-width:3;stroke-miterlimit:10;}
	.st5{fill:#EFEA42;stroke:#000000;stroke-width:3;stroke-miterlimit:10;}
	.st6{fill:#FCE62D;stroke:#000000;stroke-width:3;stroke-miterlimit:10;}
	.st7{fill:none;stroke:#000000;stroke-width:3;stroke-miterlimit:10;}
	.st8{fill:#FBD730;}
	.st9{fill:#CE2026;stroke:#000000;stroke-width:2;stroke-linejoin:round;stroke-miterlimit:10;}
	.st10{fill:#F8982C;stroke:#000000;stroke-width:2;stroke-miterlimit:10;}
</style>
<path class="st0" d="M109.7,28.4v0.4l4.7,4.6c1.8,7.1,4.4,16.2,7.8,27.3c0.6-2.5,1.1-5.3,1.6-8.4c2.1-13.3,3.6-21.8,4.6-25.4
	c8.8-0.3,13.5-0.5,14.2-0.5l21.2-0.6c2.3-0.1,4.1-0.1,5.2-0.1c0.1,0.3,0.2,0.6,0.2,0.8l4.6,4.5c1.5,4.3,3.3,20.2,5.4,47.9l0.7,9
	c1.3,16.4,2.2,30.7,2.8,42.7c-3.3,1.5-6.5,2.3-9.8,2.3h-23.7l-4.7-4.7h-0.6c-0.3-1.7-0.6-3.6-0.9-5.5l-2.4,8.8c-2.1,0.4-4,0.7-5.9,1
	c-1.6,0.2-4.9,0.5-9.9,0.8c-4.2,0.3-7.5,0.6-9.8,1.1l-4.7-4.7c-0.2,0-0.4,0-0.5,0.1c-0.8-1.9-1.5-3.9-2.2-6.2v6.8
	c0,3.3-2.1,4.9-6.3,4.9c-0.7,0-1.8-0.1-3.3-0.4c-1.5-0.3-2.6-0.4-3.3-0.4c-1.3,0-4.7,0.1-10.1,0.3c-1.8,0.1-2.8,0.1-3.1,0.1h-2.2
	c-2.1,0-3.8-0.7-5.1-2l-3.3-3.3c-0.5-0.3-1.1-0.9-2-1.6c1.9-7.9,3.2-18.4,3.7-31.3c0.3-7.1,0.5-11.9,0.6-14.5l1-20.3
	c0.6-12.6,2.4-22.2,5.5-28.7c4.9-1.7,9.7-2.9,14.6-3.4c1.4-0.1,2.4-0.2,2.9-0.3l3.8-0.5c3.8-0.5,6.7-0.8,8.7-1
	C109.6,28.2,109.6,28.3,109.7,28.4z M120.5,74.9c-5.4-16.6-9.7-31.1-13.1-43.5c-5.2,0.7-9.5,1.2-12.9,1.5c-4.8,0.5-9,1.5-12.6,2.8
	c-2.7,5.9-4.3,14.7-4.8,26.5l-1.6,34.7c-0.6,13.4-1.7,23.5-3.4,30.3c0.3,0.1,2.8,0.1,7.3,0c6.7-0.2,10-0.3,10.2-0.3
	c0.7,0,1.8,0.1,3.3,0.4c1.5,0.3,2.6,0.4,3.3,0.4c2.4,0,3.6-0.7,3.6-2.2c0-3.5,0.1-7.9,0.2-13.3l0.6-24.3c2.3,4.5,4.3,10.8,6,19.2
	c1.9,9.4,3.6,15.9,5,19.4c1.9-0.2,3.3-0.3,4.1-0.4c9.8-0.9,15.7-1.5,17.7-1.9c4.1-15,6.8-25.8,8.2-32.1c1.9,14.8,3.5,25.9,4.8,33.2
	h21.4c2.9,0,5.3-0.4,7-1.2c-0.3-7.9-0.7-14.4-1.1-19.6l-2.3-30.3c-2.1-27.5-3.6-42.6-4.7-45.4c-2.1,0-6.1,0.1-12.1,0.3l-24,0.8
	c-0.9,3.1-2.2,10.7-3.9,22.9c-1.3,9.4-3.3,16.8-6,22.2C120.8,74.9,120.5,74.9,120.5,74.9z"/>
<path class="st0" d="M200.1,116.8c-0.4-0.4-0.9-0.8-1.4-1.2c-7.3-6.5-10.9-15.4-10.9-26.8c0-6.2,2-12.5,6-18.9
	c3.6-5.7,8.2-10.5,13.8-14.5c6.2-4.4,12.3-6.6,18.3-6.6c12.1,0,21.2,3.8,27.2,11.4l1.2,1.2c6.8,6.8,10.2,17.2,10.2,31
	c0,9.9-3.3,18.3-9.9,25.3c-6.8,7.2-15,10.7-24.8,10.7c-12,0-21.5-3.6-28.7-10.8L200.1,116.8z M251.5,61.7
	c-5.6-7.1-14.1-10.7-25.6-10.7c-5.6,0-11.2,2-16.9,6c-5.3,3.7-9.7,8.3-13.2,13.8c-3.9,6.1-5.9,12.1-5.9,17.9
	c0,10.8,3.4,19.2,10.2,25.3c6.5,5.9,15.2,8.9,26.1,8.9c9.2,0,17-3.4,23.4-10.2c6.3-6.6,9.4-14.6,9.4-23.9
	C259,77.2,256.5,68.1,251.5,61.7z M235,94.3c-2.6,3.6-6.1,5.4-10.4,5.4c-3.9,0-7.1-1.1-9.6-3.2c-2.4-2.2-3.7-5.2-3.7-9.1
	c0-4.1,1.5-8,4.6-11.8c3.3-4,6.9-6,10.9-6c3.7,0,6.7,1.3,8.8,3.9c2,2.4,3,5.5,3,9.3C238.6,87.2,237.4,91,235,94.3z M234.9,76.1
	c-1.4-0.6-2.9-0.9-4.4-0.9c-3.4,0-6.5,1.8-9.3,5.3s-4.2,7-4.2,10.5c0,1.9,0.3,3.5,0.9,4.8c2,1.2,4.2,1.8,6.8,1.8
	c3.7,0,6.6-1.6,8.9-4.8c2-2.8,3-6.1,3-10C236.4,80.2,235.9,77.9,234.9,76.1z"/>
<path class="st0" d="M279.5,116.8c-0.4-0.4-0.9-0.8-1.4-1.2c-7.3-6.5-10.9-15.4-10.9-26.8c0-6.2,2-12.5,6-18.9
	c3.6-5.7,8.2-10.5,13.8-14.5c6.2-4.4,12.3-6.6,18.3-6.6c12.1,0,21.2,3.8,27.2,11.4l1.2,1.2c6.8,6.8,10.2,17.2,10.2,31
	c0,9.9-3.3,18.3-9.9,25.3c-6.8,7.2-15,10.7-24.8,10.7c-12,0-21.5-3.6-28.7-10.8L279.5,116.8z M330.8,61.7
	c-5.6-7.1-14.1-10.7-25.6-10.7c-5.6,0-11.2,2-16.9,6c-5.3,3.7-9.7,8.3-13.2,13.8c-3.9,6.1-5.9,12.1-5.9,17.9
	c0,10.8,3.4,19.2,10.2,25.3c6.5,5.9,15.2,8.9,26.1,8.9c9.2,0,17-3.4,23.4-10.2c6.3-6.6,9.4-14.6,9.4-23.9
	C338.4,77.2,335.9,68.1,330.8,61.7z M314.3,94.3c-2.6,3.6-6.1,5.4-10.4,5.4c-3.9,0-7.1-1.1-9.6-3.2c-2.4-2.2-3.7-5.2-3.7-9.1
	c0-4.1,1.5-8,4.6-11.8c3.3-4,6.9-6,10.9-6c3.7,0,6.7,1.3,8.8,3.9c2,2.4,3,5.5,3,9.3C317.9,87.2,316.7,91,314.3,94.3z M314.2,76.1
	c-1.4-0.6-2.9-0.9-4.4-0.9c-3.4,0-6.5,1.8-9.3,5.3s-4.2,7-4.2,10.5c0,1.9,0.3,3.5,0.9,4.8c2,1.2,4.2,1.8,6.8,1.8
	c3.7,0,6.6-1.6,8.9-4.8c2-2.8,3-6.1,3-10C315.8,80.2,315.3,77.9,314.2,76.1z"/>
<path class="st1" d="M107,30l-25.8,4.3c0,0-0.8,1.5-2.5,6s-3,13-3,17.8S74,82.7,74,87s-1.5,36-3.3,38.3s10.8,1,15,0.8
	s10.3,1.6,12,1.1S99.3,82,99.3,82l12.8,42.9l21.6-1.6l8.3-39.1l4.4,41.1l27.5-0.9L166,27.7h-37l-8.6,49.1l-1.1-0.2L107,30z"/>
<ellipse transform="matrix(0.3505 -0.9366 0.9366 0.3505 66.8358 265.9709)" class="st2" cx="225.2" cy="84.8" rx="16.6" ry="14.8"/>
<path class="st3" d="M237.9,53.7c-17-6.4-36.5,3.6-43.5,22.2c-7,18.7,1.2,39,18.2,45.3c17,6.4,36.5-3.6,43.5-22.2
	C263.1,80.4,254.9,60.1,237.9,53.7z M221,97.6c-3.3-1.8-3.5-7.9-0.4-13.8c3.1-5.9,8.3-9.2,11.6-7.5c3.3,1.8,3.5,7.9,0.4,13.8
	C229.5,96,224.3,99.4,221,97.6z"/>
<path class="st0" d="M229.5,70.7c-5.5-2.1-12.2,2.3-15,9.8c-2.8,7.5-0.6,15.2,4.8,17.2c5.5,2.1,12.2-2.3,15-9.8
	C237.1,80.4,234.9,72.7,229.5,70.7z M232.6,90.1c-3.1,5.9-8.3,9.2-11.6,7.5c-3.3-1.8-3.5-7.9-0.4-13.8c3.1-5.9,8.3-9.2,11.6-7.5
	C235.5,78.1,235.7,84.3,232.6,90.1z"/>
<path class="st4" d="M316.9,52.6c-17.2-6.4-36.8,3.6-43.9,22.3c-7,18.7,1.2,39.1,18.4,45.5c17.2,6.4,36.9-3.6,43.9-22.3
	C342.3,79.3,334.1,59,316.9,52.6z M299.9,96.6c-3.3-1.8-3.5-7.9-0.4-13.8c3.1-5.9,8.4-9.3,11.7-7.5c3.3,1.8,3.5,7.9,0.4,13.8
	C308.4,95,303.2,98.4,299.9,96.6z"/>
<path class="st0" d="M308.4,69.6c-5.5-2.1-12.3,2.3-15.1,9.8c-2.8,7.5-0.6,15.2,4.9,17.3c5.5,2.1,12.3-2.3,15.1-9.8
	C316.1,79.4,313.9,71.6,308.4,69.6z M311.6,89.1c-3.1,5.9-8.4,9.3-11.7,7.5c-3.3-1.8-3.5-7.9-0.4-13.8c3.1-5.9,8.4-9.3,11.7-7.5
	C314.5,77,314.7,83.2,311.6,89.1z"/>
<path class="st5" d="M548.9,77"/>
<g>
	<path class="st0" d="M581.4,92.2c-0.8-46.3-47.5-45.5-77.7-38.8c0.7,12.8,1.4,34.3,2.1,47.1c1.4,22.9,2.6,45.9,3.8,68.8
		c0.3,6.7,1.2,11.2,1.8,17.9c0.2,2.6,0.4,3.5,2.4,5.5c1.9,1.8,4.9,2.1,7.4,2c5.2-0.2,11.8-0.5,16.1-3.5c4.4-3.1,3.3-6.1,3-10.4
		c-0.1-1.3-0.1-2.5-0.2-3.8c-0.6-5.9-0.7-11.9-1.1-17.8c-0.5-7.6-0.8-15.3-1.2-22.9C537.8,136.2,582.1,130.4,581.4,92.2z
		 M533.2,121.8c0,0-5.5-44.7-5.5-44.8c0-1.5,9.8-0.9,10.7-0.8c8.2,0.3,16.2,2.6,21.7,9.1c3.2,3.8,4,8.7,4.2,13.5
		c0.1,2.7-0.3,5.4-1.4,8c-3,6.6-10.7,11.5-17.8,13.6C544.3,120.6,533.3,122.6,533.2,121.8z"/>
</g>
<g>
	<path class="st6" d="M576.1,85.4c-2.1-43.4-44.8-39.1-71.6-32.8l7.1,133.8l23.3-2.9l-2.6-56.1C532.2,127.4,578.1,128.8,576.1,85.4z
		 M529.7,108.6c0,0-4.8-41.6-4.9-42.1c-0.1-1.4,11.6-0.8,12.8-0.6c6.5,0.8,12.7,4,16.6,9.5c2.2,3.1,3.3,6.8,3.3,10.6
		c0,2.7-0.4,6-1.5,8.5c-2.2,5.2-6.8,8.8-11.8,11.1C543.1,106.1,529.7,109.9,529.7,108.6z"/>
</g>
<path class="st5" d="M638,77"/>
<g>
	<g>
		<g>
			<g>
				<path d="M670.6,92.2c-0.8-46.3-47.5-45.5-77.7-38.8c0.7,12.8,1.4,34.3,2.1,47.1c1.4,22.9,2.6,45.9,3.8,68.8
					c0.3,6.7,1.2,11.2,1.8,17.9c0.2,2.6,0.4,3.5,2.4,5.5c1.9,1.8,4.9,2.1,7.4,2c5.2-0.2,11.8-0.5,16.1-3.5c4.4-3.1,3.3-6.1,3-10.4
					c-0.1-1.3-0.1-2.5-0.2-3.8c-0.6-5.9-0.7-11.9-1.1-17.8c-0.5-7.6-0.8-15.3-1.2-22.9C626.9,136.2,671.2,130.4,670.6,92.2z
					 M622.4,121.8c0,0-5.5-44.7-5.5-44.8c0-1.5,9.8-0.9,10.7-0.8c8.2,0.3,16.2,2.6,21.7,9.1c3.2,3.8,4,8.7,4.2,13.5
					c0.1,2.7-0.3,5.4-1.4,8c-3,6.6-10.7,11.5-17.8,13.6C633.5,120.6,622.5,122.6,622.4,121.8z"/>
			</g>
			<g>
				<path class="st7" d="M670.6,92.2c-0.8-46.3-47.5-45.5-77.7-38.8c0.7,12.8,1.4,34.3,2.1,47.1c1.4,22.9,2.6,45.9,3.8,68.8
					c0.3,6.7,1.2,11.2,1.8,17.9c0.2,2.6,0.4,3.5,2.4,5.5c1.9,1.8,4.9,2.1,7.4,2c5.2-0.2,11.8-0.5,16.1-3.5c4.4-3.1,3.3-6.1,3-10.4
					c-0.1-1.3-0.1-2.5-0.2-3.8c-0.6-5.9-0.7-11.9-1.1-17.8c-0.5-7.6-0.8-15.3-1.2-22.9C626.9,136.2,671.2,130.4,670.6,92.2z
					 M622.4,121.8c0,0-5.5-44.7-5.5-44.8c0-1.5,9.8-0.9,10.7-0.8c8.2,0.3,16.2,2.6,21.7,9.1c3.2,3.8,4,8.7,4.2,13.5
					c0.1,2.7-0.3,5.4-1.4,8c-3,6.6-10.7,11.5-17.8,13.6C633.5,120.6,622.5,122.6,622.4,121.8z"/>
			</g>
		</g>
	</g>
</g>
<g>
	<g>
		<g>
			<g>
				<path class="st8" d="M665.2,85.4c-2.1-43.4-44.8-39.1-71.6-32.8l7.1,133.8l23.3-2.9l-2.6-56.1
					C621.4,127.4,667.3,128.8,665.2,85.4z M618.9,108.6c0,0-4.8-41.6-4.9-42.1c-0.1-1.4,11.6-0.8,12.8-0.6c6.5,0.8,12.7,4,16.6,9.5
					c2.2,3.1,3.3,6.8,3.3,10.6c0,2.7-0.4,6-1.5,8.5c-2.2,5.2-6.8,8.8-11.8,11.1C632.3,106.1,618.9,109.9,618.9,108.6z"/>
			</g>
			<g>
				<path class="st7" d="M665.2,85.4c-2.1-43.4-44.8-39.1-71.6-32.8l7.1,133.8l23.3-2.9l-2.6-56.1
					C621.4,127.4,667.3,128.8,665.2,85.4z M618.9,108.6c0,0-4.8-41.6-4.9-42.1c-0.1-1.4,11.6-0.8,12.8-0.6c6.5,0.8,12.7,4,16.6,9.5
					c2.2,3.1,3.3,6.8,3.3,10.6c0,2.7-0.4,6-1.5,8.5c-2.2,5.2-6.8,8.8-11.8,11.1C632.3,106.1,618.9,109.9,618.9,108.6z"/>
			</g>
		</g>
	</g>
</g>
<path class="st0" d="M354.8,60.4l-3.5,60.8l5.3,4l16.7-2c0,0-6.2-27.7-1.8-36.3c0,0,4.4-15.7,12.8-15c8.4,0.7,7.6,13.5,7.3,18.5
	c-0.3,4.2-11.2,30-11.2,30l5.3,4l19.3,2.6c0,0-0.3-38.1,3.3-47c0,0,1.6-8.3,7.6-7.3c6,1,6.1,9.6,5.8,14.3c-0.3,5.3-1,10.4-2,15.6
	c-1.2,6.1-7.9,18.7-7.9,18.7l5.3,4l19.8-1.7c-0.2-3.3-0.3-6.6-0.5-9.9c-0.2-6-0.5-12.2-0.2-18.2c0.3-5.2,1.2-10.5,0.2-15.8
	c-0.7-4.1-2.3-9.4-4.8-12.8c-5.4-7.4-9.7-8.8-16.4-9.1c-2.2-0.1-4.6,0-6.7,0.5c0,0-6.7,1.4-9.7,6.4c0,0-5.9-6.9-15.3-6.9
	c-7.8,0-15,5.7-15,5.7l-0.3-3.5L354.8,60.4z"/>
<path class="st9" d="M349.5,56.4l1.8,64.7l16.7-2c0,0-6.2-27.7-1.8-36.3c0,0,4.4-15.7,12.8-15c8.4,0.7,7.6,13.5,7.3,18.5
	c-0.3,5-5.9,34-5.9,34l19.3,2.6c0,0-0.3-38.1,3.3-47.1c0,0,1.6-8.3,7.6-7.3c6,1,6.1,9.6,5.8,14.3c-0.3,5.3-1,10.4-2,15.6
	c-1.5,7.8-3,20.3-2.6,22.6l19.8-1.7c-0.2-3.3-0.3-6.6-0.5-9.9c-0.2-6-0.5-12.2-0.2-18.2c0.3-5.2,1.2-10.5,0.2-15.8
	c-0.7-4.1-2.3-9.4-4.8-12.8c-5.4-7.4-9.7-8.8-16.4-9.1c-2.2-0.1-4.6,0-6.7,0.5c0,0-6.7,1.4-9.7,6.4c0,0-5.9-6.9-15.3-6.9
	c-7.8,0-15,5.7-15,5.7l-0.3-3.5L349.5,56.4z"/>
<path class="st0" d="M496.1,130.5l-1-40.3c-0.1-2.2-0.5-31.6-20.9-32.2c-19.4-0.5-25.8,23.5-25.8,23.5l1.8,4.5l15.1,1.5
	c0.6-3.3-0.9-13.5,8.2-12.8c9.1,0.7,7.6,17,7.6,17L470,90.4c-0.4,0-28.3-4.1-26.1,15.7c2.2,19.8,33.6,16.6,33.6,16.6l-0.8,5.4
	L496.1,130.5z M457.7,106c-0.1-9,22.1-3.8,22.1-3.8l-0.7,8.6C476.9,111.3,457.8,115,457.7,106z"/>
<path class="st10" d="M494.3,126l-1-40.3c-0.1-2.2-0.5-31.6-20.9-32.2c-23.6-0.7-24,28-24,28l15.1,1.5c0.6-3.3-0.9-13.5,8.2-12.8
	c9.1,0.7,7.6,17,7.6,17l-11.1-1.3c-0.4,0-28.3-4.1-26.1,15.7c2.2,19.8,33.6,16.6,33.6,16.6l-0.8,5.4L494.3,126z M455.9,101.5
	c-0.1-9,22.1-3.8,22.1-3.8l-0.7,8.6C475.2,106.8,456,110.5,455.9,101.5z"/>
</svg>
