<?xml version="1.0" encoding="utf-8"?>
<!-- Generator: Adobe Illustrator 16.2.0, SVG Export Plug-In . SVG Version: 6.00 Build 0)  -->
<!DOCTYPE svg PUBLIC "-//W3C//DTD SVG 1.1//EN" "http://www.w3.org/Graphics/SVG/1.1/DTD/svg11.dtd">
<svg version="1.1" id="Layer_1" xmlns="http://www.w3.org/2000/svg" xmlns:xlink="http://www.w3.org/1999/xlink" x="0px" y="0px"
	 width="757.535px" height="220.548px" viewBox="0 0 757.535 220.548" enable-background="new 0 0 757.535 220.548"
	 xml:space="preserve">
<path stroke="#000000" stroke-width="3" stroke-miterlimit="10" d="M109.704,28.428v0.399l4.691,4.591
	c1.797,7.054,4.392,16.17,7.786,27.349c0.599-2.461,1.13-5.256,1.597-8.384c2.062-13.308,3.593-21.759,4.592-25.353
	c8.783-0.332,13.507-0.499,14.173-0.499l21.16-0.599c2.329-0.066,4.058-0.1,5.19-0.1c0.133,0.334,0.2,0.599,0.2,0.799l4.591,4.491
	c1.463,4.259,3.26,20.229,5.39,47.911l0.699,8.983c1.263,16.437,2.196,30.676,2.794,42.72c-3.261,1.53-6.522,2.296-9.782,2.296
	H149.13l-4.691-4.691h-0.599c-0.333-1.73-0.633-3.561-0.898-5.49l-2.396,8.784c-2.063,0.399-4.027,0.731-5.889,0.998
	c-1.597,0.2-4.891,0.465-9.882,0.798c-4.192,0.266-7.453,0.633-9.781,1.099l-4.691-4.691c-0.2,0-0.367,0.032-0.499,0.101
	c-0.799-1.864-1.532-3.928-2.196-6.189v6.787c0,3.26-2.096,4.892-6.289,4.892c-0.733,0-1.846-0.134-3.344-0.399
	c-1.497-0.267-2.612-0.399-3.344-0.399c-1.332,0-4.691,0.101-10.081,0.3c-1.796,0.065-2.829,0.1-3.094,0.1h-2.196
	c-2.063,0-3.76-0.666-5.09-1.996l-3.294-3.294c-0.465-0.334-1.131-0.866-1.996-1.597c1.931-7.92,3.161-18.366,3.693-31.342
	c0.265-7.12,0.465-11.943,0.599-14.473l0.998-20.262c0.599-12.577,2.428-22.159,5.49-28.747c4.856-1.729,9.714-2.86,14.573-3.394
	c1.397-0.132,2.361-0.232,2.895-0.299l3.793-0.499c3.793-0.465,6.688-0.798,8.684-0.998
	C109.604,28.195,109.637,28.295,109.704,28.428z M120.484,74.941c-5.39-16.635-9.749-31.142-13.076-43.519
	c-5.19,0.666-9.482,1.165-12.876,1.497c-4.791,0.533-8.983,1.464-12.577,2.795c-2.662,5.923-4.259,14.739-4.791,26.45l-1.597,34.735
	c-0.599,13.375-1.731,23.489-3.394,30.344c0.333,0.133,2.761,0.133,7.287,0c6.653-0.199,10.047-0.3,10.181-0.3
	c0.731,0,1.847,0.133,3.344,0.399c1.498,0.266,2.611,0.399,3.344,0.399c2.396,0,3.594-0.733,3.594-2.196
	c0-3.461,0.065-7.885,0.199-13.275l0.599-24.254c2.329,4.459,4.325,10.847,5.989,19.164c1.929,9.448,3.593,15.903,4.991,19.364
	c1.929-0.199,3.294-0.334,4.092-0.398c9.847-0.866,15.736-1.498,17.667-1.896c4.058-15.04,6.787-25.752,8.185-32.141
	c1.862,14.772,3.459,25.852,4.791,33.238h21.36c2.928,0,5.256-0.399,6.987-1.198c-0.334-7.919-0.699-14.439-1.098-19.563
	l-2.296-30.343c-2.063-27.481-3.627-42.621-4.691-45.415c-2.063,0-6.089,0.1-12.078,0.299l-23.955,0.798
	c-0.866,3.062-2.163,10.68-3.893,22.857c-1.332,9.382-3.328,16.769-5.989,22.159H120.484z"/>
<path stroke="#000000" stroke-width="3" stroke-miterlimit="10" d="M200.149,116.825c-0.432-0.432-0.912-0.84-1.44-1.225
	c-7.297-6.479-10.944-15.408-10.944-26.784c0-6.239,2.016-12.528,6.048-18.864c3.6-5.712,8.208-10.536,13.824-14.472
	c6.192-4.367,12.287-6.552,18.288-6.552c12.144,0,21.215,3.792,27.216,11.376l1.224,1.224c6.815,6.816,10.224,17.161,10.224,31.032
	c0,9.889-3.312,18.312-9.936,25.272c-6.768,7.152-15.048,10.729-24.84,10.729c-11.952,0-21.528-3.601-28.728-10.801L200.149,116.825
	z M251.485,61.745c-5.616-7.104-14.137-10.656-25.56-10.656c-5.568,0-11.208,2.016-16.92,6.048
	c-5.281,3.744-9.672,8.328-13.176,13.752c-3.937,6.096-5.904,12.072-5.904,17.928c0,10.753,3.384,19.201,10.152,25.344
	c6.527,5.904,15.239,8.855,26.136,8.855c9.216,0,17.016-3.384,23.4-10.151c6.288-6.624,9.432-14.591,9.432-23.904
	C259.045,77.202,256.525,68.129,251.485,61.745z M234.998,94.289c-2.641,3.6-6.096,5.4-10.368,5.4c-3.936,0-7.128-1.08-9.576-3.24
	c-2.448-2.16-3.672-5.184-3.672-9.072c0-4.079,1.536-8.016,4.608-11.808c3.263-3.983,6.887-5.976,10.872-5.976
	c3.744,0,6.671,1.296,8.784,3.888c1.968,2.401,2.952,5.497,2.952,9.288C238.598,87.186,237.397,91.025,234.998,94.289z
	 M234.854,76.073c-1.393-0.624-2.856-0.936-4.392-0.936c-3.409,0-6.516,1.764-9.324,5.292c-2.808,3.528-4.212,7.044-4.212,10.548
	c0,1.872,0.312,3.456,0.936,4.752c1.968,1.2,4.224,1.8,6.768,1.8c3.696,0,6.648-1.584,8.856-4.752
	c1.968-2.783,2.952-6.12,2.952-10.008C236.438,80.177,235.909,77.945,234.854,76.073z"/>
<path stroke="#000000" stroke-width="3" stroke-miterlimit="10" d="M279.493,116.825c-0.432-0.432-0.912-0.84-1.44-1.225
	c-7.297-6.479-10.944-15.408-10.944-26.784c0-6.239,2.016-12.528,6.048-18.864c3.6-5.712,8.208-10.536,13.824-14.472
	c6.192-4.367,12.287-6.552,18.288-6.552c12.144,0,21.215,3.792,27.216,11.376l1.224,1.224c6.815,6.816,10.224,17.161,10.224,31.032
	c0,9.889-3.312,18.312-9.936,25.272c-6.768,7.152-15.048,10.729-24.84,10.729c-11.952,0-21.528-3.601-28.728-10.801L279.493,116.825
	z M330.829,61.745c-5.616-7.104-14.137-10.656-25.56-10.656c-5.568,0-11.208,2.016-16.92,6.048
	c-5.281,3.744-9.672,8.328-13.176,13.752c-3.937,6.096-5.904,12.072-5.904,17.928c0,10.753,3.384,19.201,10.152,25.344
	c6.527,5.904,15.239,8.855,26.136,8.855c9.216,0,17.016-3.384,23.4-10.151c6.288-6.624,9.432-14.591,9.432-23.904
	C338.389,77.202,335.869,68.129,330.829,61.745z M314.341,94.289c-2.641,3.6-6.096,5.4-10.368,5.4c-3.936,0-7.128-1.08-9.576-3.24
	c-2.448-2.16-3.672-5.184-3.672-9.072c0-4.079,1.536-8.016,4.608-11.808c3.263-3.983,6.887-5.976,10.872-5.976
	c3.744,0,6.671,1.296,8.784,3.888c1.968,2.401,2.952,5.497,2.952,9.288C317.941,87.186,316.74,91.025,314.341,94.289z
	 M314.197,76.073c-1.393-0.624-2.856-0.936-4.392-0.936c-3.409,0-6.516,1.764-9.324,5.292c-2.808,3.528-4.212,7.044-4.212,10.548
	c0,1.872,0.312,3.456,0.936,4.752c1.968,1.2,4.224,1.8,6.768,1.8c3.696,0,6.648-1.584,8.856-4.752
	c1.968-2.783,2.952-6.12,2.952-10.008C315.781,80.177,315.252,77.945,314.197,76.073z"/>
<path fill="#4D59A8" d="M107.018,29.97l-25.75,4.25c0,0-0.75,1.5-2.5,6s-3,13-3,17.75s-1.75,24.75-1.75,29s-1.5,36-3.25,38.25
	s10.75,1,15,0.75s10.25,1.617,12,1.059s1.5-45.059,1.5-45.059l12.821,42.909l21.621-1.56l8.308-39.1l4.417,41.127l27.518-0.867
	l-7.935-96.76h-37l-8.638,49.072l-1.112-0.197L107.018,29.97z"/>
<ellipse transform="matrix(-0.9366 -0.3505 0.3505 -0.9366 406.3621 243.1512)" fill="none" stroke="#000000" stroke-miterlimit="10" cx="225.185" cy="84.802" rx="14.75" ry="16.584"/>
<path fill="#597DBF" stroke="#000000" stroke-width="3" stroke-miterlimit="10" d="M237.898,53.729
	c-17.02-6.369-36.48,3.58-43.47,22.24c-6.98,18.66,1.16,38.951,18.18,45.32c17.03,6.381,36.49-3.58,43.47-22.24
	C263.068,80.39,254.928,60.101,237.898,53.729z M221.008,97.62c-3.31-1.75-3.48-7.92-0.38-13.8c3.1-5.87,8.29-9.22,11.59-7.479
	c3.31,1.75,3.48,7.92,0.38,13.799C229.498,96.011,224.308,99.36,221.008,97.62z"/>
<path stroke="#000000" stroke-width="3" stroke-miterlimit="10" d="M229.478,70.671c-5.47-2.051-12.17,2.34-14.96,9.799
	c-2.8,7.471-0.63,15.17,4.84,17.221c5.47,2.05,12.17-2.34,14.96-9.801C237.118,80.421,234.948,72.71,229.478,70.671z M232.598,90.14
	c-3.1,5.871-8.29,9.221-11.59,7.48c-3.31-1.75-3.48-7.92-0.38-13.8c3.1-5.87,8.29-9.22,11.59-7.479
	C235.528,78.091,235.698,84.261,232.598,90.14z"/>
<path fill="#89D3E3" stroke="#000000" stroke-width="3" stroke-miterlimit="10" d="M316.918,52.575
	c-17.19-6.391-36.845,3.592-43.904,22.314c-7.05,18.721,1.171,39.078,18.361,45.469c17.201,6.401,36.855-3.592,43.905-22.313
	C342.34,79.323,334.119,58.967,316.918,52.575z M299.86,96.61c-3.343-1.756-3.516-7.945-0.384-13.846
	c3.131-5.889,8.373-9.25,11.706-7.504c3.343,1.756,3.515,7.945,0.384,13.846C308.435,94.995,303.193,98.356,299.86,96.61z"/>
<path stroke="#000000" stroke-width="3" stroke-miterlimit="10" d="M308.415,69.571c-5.524-2.057-12.292,2.348-15.109,9.832
	c-2.828,7.496-0.636,15.221,4.888,17.277c5.525,2.057,12.292-2.348,15.109-9.832C316.131,79.354,313.939,71.618,308.415,69.571z
	 M311.566,89.106c-3.131,5.889-8.373,9.25-11.706,7.504c-3.343-1.756-3.516-7.945-0.384-13.846c3.131-5.889,8.373-9.25,11.706-7.504
	C314.525,77.017,314.697,83.206,311.566,89.106z"/>
<path fill="#EFEA42" stroke="#000000" stroke-width="3" stroke-miterlimit="10" d="M548.868,77.015"/>
<g>
	<path stroke="#000000" stroke-width="3" stroke-miterlimit="10" d="M581.446,92.249c-0.763-46.281-47.517-45.518-77.731-38.779
		c0.706,12.778,1.385,34.279,2.145,47.055c1.364,22.928,2.649,45.858,3.841,68.796c0.348,6.698,1.165,11.21,1.764,17.889
		c0.23,2.583,0.383,3.539,2.404,5.478c1.924,1.845,4.88,2.094,7.407,2.017c5.185-0.158,11.801-0.459,16.092-3.534
		c4.362-3.126,3.281-6.058,2.978-10.417c-0.089-1.269-0.104-2.519-0.231-3.822c-0.576-5.892-0.729-11.866-1.107-17.778
		c-0.488-7.634-0.841-15.28-1.237-22.92C537.768,136.231,582.075,130.418,581.446,92.249z M533.205,121.832
		c0-0.043-5.478-44.723-5.479-44.771c-0.019-1.503,9.791-0.859,10.715-0.83c8.225,0.26,16.171,2.597,21.656,9.104
		c3.188,3.781,4.019,8.709,4.179,13.516c0.091,2.726-0.281,5.45-1.431,7.973c-2.999,6.568-10.723,11.549-17.825,13.572
		C544.344,120.598,533.307,122.609,533.205,121.832z"/>
</g>
<g>
	<path fill="#FCE62D" stroke="#000000" stroke-width="3" stroke-miterlimit="10" d="M576.051,85.375
		c-2.07-43.43-44.801-39.09-71.601-32.76l7.09,133.75l23.32-2.92l-2.64-56.061C532.221,127.385,578.131,128.805,576.051,85.375z
		 M529.721,108.645c0-0.041-4.81-41.582-4.86-42.057c-0.142-1.368,11.64-0.75,12.803-0.6c6.521,0.84,12.737,4.029,16.558,9.463
		c2.174,3.092,3.346,6.778,3.314,10.574c-0.022,2.703-0.447,6.016-1.524,8.52c-2.237,5.2-6.757,8.82-11.839,11.054
		C543.126,106.059,529.724,109.917,529.721,108.645z"/>
</g>
<path fill="#EFEA42" stroke="#000000" stroke-width="3" stroke-miterlimit="10" d="M638.014,77.015"/>
<g>
	<g>
		<g>
			<g>
				<path d="M670.592,92.249c-0.763-46.281-47.517-45.518-77.731-38.779c0.706,12.778,1.385,34.279,2.145,47.055
					c1.364,22.928,2.649,45.858,3.841,68.796c0.348,6.698,1.165,11.21,1.764,17.889c0.23,2.583,0.383,3.539,2.404,5.478
					c1.924,1.845,4.88,2.094,7.407,2.017c5.185-0.158,11.801-0.459,16.092-3.534c4.362-3.126,3.281-6.058,2.978-10.417
					c-0.089-1.269-0.104-2.519-0.231-3.822c-0.576-5.892-0.729-11.866-1.107-17.778c-0.488-7.634-0.841-15.28-1.237-22.92
					C626.915,136.231,671.221,130.418,670.592,92.249z M622.351,121.832c0-0.043-5.478-44.723-5.479-44.771
					c-0.019-1.503,9.791-0.859,10.715-0.83c8.225,0.26,16.171,2.597,21.656,9.104c3.188,3.781,4.019,8.709,4.179,13.516
					c0.091,2.726-0.281,5.45-1.431,7.973c-2.999,6.568-10.723,11.549-17.825,13.572
					C633.491,120.598,622.454,122.609,622.351,121.832z"/>
			</g>
			<g>
				<path fill="none" stroke="#000000" stroke-width="3" stroke-miterlimit="10" d="M670.592,92.249
					c-0.763-46.281-47.517-45.518-77.731-38.779c0.706,12.778,1.385,34.279,2.145,47.055c1.364,22.928,2.649,45.858,3.841,68.796
					c0.348,6.698,1.165,11.21,1.764,17.889c0.23,2.583,0.383,3.539,2.404,5.478c1.924,1.845,4.88,2.094,7.407,2.017
					c5.185-0.158,11.801-0.459,16.092-3.534c4.362-3.126,3.281-6.058,2.978-10.417c-0.089-1.269-0.104-2.519-0.231-3.822
					c-0.576-5.892-0.729-11.866-1.107-17.778c-0.488-7.634-0.841-15.28-1.237-22.92C626.915,136.231,671.221,130.418,670.592,92.249
					z M622.351,121.832c0-0.043-5.478-44.723-5.479-44.771c-0.019-1.503,9.791-0.859,10.715-0.83
					c8.225,0.26,16.171,2.597,21.656,9.104c3.188,3.781,4.019,8.709,4.179,13.516c0.091,2.726-0.281,5.45-1.431,7.973
					c-2.999,6.568-10.723,11.549-17.825,13.572C633.491,120.598,622.454,122.609,622.351,121.832z"/>
			</g>
		</g>
	</g>
</g>
<g>
	<g>
		<g>
			<g>
				<path fill="#FBD730" d="M665.198,85.375c-2.07-43.43-44.801-39.09-71.601-32.76l7.09,133.75l23.32-2.92l-2.64-56.061
					C621.368,127.385,667.278,128.805,665.198,85.375z M618.868,108.645c0-0.041-4.81-41.582-4.86-42.057
					c-0.142-1.368,11.64-0.75,12.803-0.6c6.521,0.84,12.737,4.029,16.558,9.463c2.174,3.092,3.346,6.778,3.314,10.574
					c-0.022,2.703-0.447,6.016-1.524,8.52c-2.237,5.2-6.757,8.82-11.839,11.054C632.273,106.059,618.871,109.917,618.868,108.645z"
					/>
			</g>
			<g>
				<path fill="none" stroke="#000000" stroke-width="3" stroke-miterlimit="10" d="M665.198,85.375
					c-2.07-43.43-44.801-39.09-71.601-32.76l7.09,133.75l23.32-2.92l-2.64-56.061C621.368,127.385,667.278,128.805,665.198,85.375z
					 M618.868,108.645c0-0.041-4.81-41.582-4.86-42.057c-0.142-1.368,11.64-0.75,12.803-0.6c6.521,0.84,12.737,4.029,16.558,9.463
					c2.174,3.092,3.346,6.778,3.314,10.574c-0.022,2.703-0.447,6.016-1.524,8.52c-2.237,5.2-6.757,8.82-11.839,11.054
					C632.273,106.059,618.871,109.917,618.868,108.645z"/>
			</g>
		</g>
	</g>
</g>
<path stroke="#000000" stroke-width="3" stroke-miterlimit="10" d="M354.825,60.379l-3.521,60.752l5.283,3.962l16.729-1.982
	c0,0-6.162-27.733-1.761-36.318c0,0,4.402-15.684,12.822-15.022c8.418,0.66,7.594,13.537,7.263,18.489
	c-0.282,4.237-11.226,30.046-11.226,30.046l5.283,3.963l19.314,2.64c0,0-0.33-38.134,3.303-47.049c0,0,1.649-8.254,7.594-7.263
	c6.033,1.005,6.114,9.641,5.809,14.261c-0.347,5.253-1.021,10.449-2.012,15.619c-1.166,6.091-7.924,18.655-7.924,18.655l5.282,3.962
	l19.811-1.651c-0.203-3.3-0.343-6.604-0.471-9.907c-0.233-6.046-0.479-12.167-0.159-18.213c0.277-5.237,1.161-10.53,0.245-15.758
	c-0.724-4.127-2.32-9.439-4.816-12.829c-5.449-7.404-9.722-8.782-16.396-9.088c-2.158-0.098-4.604,0.018-6.715,0.503
	c0,0-6.686,1.404-9.658,6.355c0,0-5.853-6.893-15.27-6.915c-7.842-0.019-15.023,5.678-15.023,5.678l-0.33-3.467L354.825,60.379z"/>
<path fill="#CE2026" stroke="#000000" stroke-width="2" stroke-linejoin="round" stroke-miterlimit="10" d="M349.542,56.417
	l1.761,64.714l16.729-1.981c0,0-6.162-27.734-1.76-36.319c0,0,4.402-15.683,12.82-15.022c8.42,0.66,7.594,13.536,7.264,18.49
	c-0.329,4.951-5.942,34.007-5.942,34.007l19.315,2.642c0,0-0.33-38.136,3.302-47.051c0,0,1.65-8.254,7.594-7.263
	c6.033,1.007,6.115,9.642,5.809,14.262c-0.346,5.252-1.021,10.449-2.011,15.618c-1.486,7.76-2.973,20.307-2.642,22.618l19.811-1.651
	c-0.203-3.301-0.345-6.604-0.472-9.906c-0.232-6.047-0.478-12.168-0.158-18.214c0.277-5.238,1.16-10.531,0.245-15.757
	c-0.724-4.127-2.32-9.439-4.816-12.83c-5.449-7.405-9.724-8.783-16.397-9.089c-2.157-0.097-4.604,0.019-6.715,0.503
	c0,0-6.687,1.404-9.657,6.357c0,0-5.853-6.895-15.271-6.916c-7.842-0.02-15.022,5.677-15.022,5.677l-0.33-3.467L349.542,56.417z"/>
<path stroke="#000000" stroke-width="3" stroke-miterlimit="10" d="M496.068,130.504l-1.031-40.331
	c-0.111-2.173-0.455-31.627-20.866-32.19c-19.408-0.543-25.766,23.455-25.766,23.455l1.751,4.5l15.13,1.54
	c0.633-3.258-0.854-13.462,8.197-12.774c9.064,0.688,7.565,16.969,7.565,16.969l-11.06-1.266c-0.398,0-28.252-4.125-26.078,15.69
	c2.188,19.828,33.589,16.624,33.589,16.624l-0.799,5.377L496.068,130.504z M457.666,105.986c-0.11-9.048,22.131-3.782,22.131-3.782
	l-0.688,8.595C476.921,111.266,457.789,115.034,457.666,105.986z"/>
<path fill="#F8982C" stroke="#000000" stroke-width="2" stroke-miterlimit="10" d="M494.317,126.004l-1.031-40.331
	c-0.111-2.173-0.455-31.628-20.866-32.191c-23.603-0.66-24.015,27.956-24.015,27.956l15.13,1.54
	c0.633-3.26-0.854-13.462,8.197-12.774c9.064,0.688,7.565,16.968,7.565,16.968l-11.06-1.265c-0.398,0-28.251-4.125-26.078,15.69
	c2.188,19.828,33.589,16.624,33.589,16.624l-0.799,5.377L494.317,126.004z M455.915,101.485c-0.11-9.048,22.131-3.781,22.131-3.781
	l-0.688,8.595C475.17,106.766,456.038,110.534,455.915,101.485z"/>
</svg>
