<?xml version="1.0" encoding="utf-8"?>
<!-- Generator: Adobe Illustrator 21.0.0, SVG Export Plug-In . SVG Version: 6.00 Build 0)  -->
<svg version="1.1" id="Pagina_inicial_Escritorio" xmlns="http://www.w3.org/2000/svg" xmlns:xlink="http://www.w3.org/1999/xlink"
	 x="0px" y="0px" viewBox="0 0 503.1 316" style="enable-background:new 0 0 503.1 316;" xml:space="preserve">
<style type="text/css">
	.st0{fill:#D1ECFB;}
	.st1{fill:#57D357;}
	.st2{fill:#103754;}
	.st3{fill:none;}
	.st4{fill:#C1E2DE;}
	.st5{fill:#0E303F;}
	.st6{fill:#FFFFFF;}
	.st7{fill:#B7C9CB;}
	.st8{stroke:#000000;stroke-width:0.3;stroke-miterlimit:10;}
	.st9{fill:#4D59A8;}
	.st10{fill:none;stroke:#000000;stroke-width:0.3;stroke-miterlimit:10;}
	.st11{fill:#597DBF;stroke:#000000;stroke-width:0.3;stroke-miterlimit:10;}
	.st12{fill:#89D3E3;stroke:#000000;stroke-width:0.3;stroke-miterlimit:10;}
	.st13{fill:#EFEA42;stroke:#000000;stroke-width:0.3;stroke-miterlimit:10;}
	.st14{fill:#FCE62D;stroke:#000000;stroke-width:0.3;stroke-miterlimit:10;}
	.st15{fill:#FBD730;}
	.st16{fill:#CE2026;stroke:#000000;stroke-width:0.3;stroke-linejoin:round;stroke-miterlimit:10;}
	.st17{fill:#F8982C;stroke:#000000;stroke-width:0.3;stroke-miterlimit:10;}
	.st18{fill:#F2F2F2;}
	.st19{fill:#CDD6E0;}
	.st20{fill:#B8CAD8;}
	.st21{fill:#40596B;}
	.st22{fill:#F5F7F7;}
</style>
<title>mundo</title>
<g id="Porque_somos_tu_mejor_elección">
	<path class="st0" d="M188.5,0c-87.1,0-158,70.9-158,158s70.9,158,158,158s158.1-70.8,158.1-157.9S275.6,0,188.5,0z"/>
	<path class="st1" d="M338.2,201.1c-2,0-4.8,1-4.8,1.7s-2.8,1.9-3.9,2.4s-2.7,3.3-3.2,4.2s-2.7,0.7-3.5,1s-2.6,1.8-2.6,2.6
		s-0.5,0.7-1-0.2l-1.1,1.1l-1.4,1.5c-0.8,2.4-3.3,5.5-4.2,5.7s-1,4.4-1,6.1c0,1.7,0.5,3.3,1.5,4.7v1.4l0.2,2.7
		c-0.2,1.6,0.4,3.2,1.6,4.3c0.5,0.3,4.3-0.7,5.8-1l2-0.8c7-11.8,12.4-24.5,16.2-37.7L338.2,201.1z"/>
	<path class="st1" d="M77.2,205.1c-0.2,0.5,2.6,3.3,3.6,4.3c1.6,2.2,2.9,4.7,3.9,7.3c0.3,1.6,0.3,3.1,0,4.7c0.1,0.8,0.3,1.6,0.6,2.4
		c0.1,0.6-0.9,5.1-0.6,7s-2.2,7.6-2,10.6s1.4,6.6,1.8,6.4s0.7,2.6-0.1,3s-1.9,2.6-1.4,2.7s0,2.4,0.1,3.3s0.9,6.9,1,8.4
		s2.3,5.1,2.7,6.4s0.9,3.5,1,3.9l0.3,0.8c0.8,0.2,1.6,0.6,2.3,1c0.5,0.3,3.9,0.1,5-0.1s0.1-1.2-0.3-1.7s-0.9-3.2-1.5-3.4
		s-0.8-3.6-0.3-4.4s2.5-1.9,2.7-2.6s0.2-3.5-0.2-4s0.1-4-0.2-5.8s3.1-3.4,3.3-4.8s4-3,4.8-3.6s1.6-4.8,1.1-5.6s1.4-1.6,2.2-1.6
		l2-0.6c0.2,0,1.2-1.8,1.7-2.2s1.6-4.7,2.5-5.3c0.9-1.1,1.5-2.5,1.7-4c0.4-1.3,1-2.5,1.9-3.6c0.5-0.7,4-2.3,4.7-2.5s1.6-5.9,1.8-8
		c0.4-1.9,0.8-3.7,1.4-5.5c0-0.7,1.1-1.2,1.4-1.5s1-2.8,1.6-3.4s2.5-3.1,2.5-3.6c0.1-1.1,0.4-2.2,0.7-3.2v-3.5
		c-0.6-1.7-2.5-3.9-3-3.3s-2.6-1.5-3.7-1.9c-1.5-0.4-3-0.7-4.5-0.7c-0.7,0-3.1-1.9-4.2-2.3c-1.5-0.3-2.9-0.6-4.3-1.1
		c-0.5-0.3-1.1-4.4-3.4-5.8s-6.1-4.5-6.6-5.7s-4.7-3.5-6-4.3s-3.3-0.9-3.5-0.6s-1.9-2.3-2.7-3s-3.4-1.2-3.5-0.7s-1.8,0.2-2.2-0.2
		s-1.7,0.2-2.4,0.5s-2.7,3.4-3.7,4.2s-2.2-0.7-2.8-1c-1.3,0-2.6,0.3-3.7,1c-0.7,0.5-2.2-3.4-1.8-5.2s-1.6-5.3-3.2-5.5
		s-1.9-3.9-1.7-5.2s-2.7-2.3-3.5-2.4s-2.6,1.8-3,2.8s-7.3-1.2-6.5-5.5s4.1-8.5,4.9-9s5.2-0.7,6.2-0.1c0.6,0.3,1.4,0.3,2-0.2
		c1.7-0.1,3.3,0,4.9,0.5c1,0.5,2.6,4.7,3.7,5.1s1.5-2.7,1.7-3.5c-0.1-1.1-0.4-2.3-0.8-3.3c-0.2-0.6,1.8-5.7,3.5-6.5s3.5-3.7,3.3-4.2
		s1.4-0.9,1.7-1.1s0-4.3,0.6-5.2c1.5-1.3,3.1-2.4,4.9-3.2c1-0.5,1.7-3,1.4-3.5s2.6-3,4.2-3.5s2.8,0.9,2.5,1l3.3-1.8
		c0.9-0.6,0-2.6-0.7-3.2s-0.2-2.7,0.6-3c0.8-0.6,1.3-1.5,1.2-2.5c-0.2-0.3,3.4,0.3,4.8-0.7s0.3,2.4-0.6,3.9
		c-0.5,0.7-0.3,1.7,0.4,2.2c0.3,0.2,0.6,0.3,1,0.3c0.7,0,1.3,0.4,1.5,1.1c0.1,0.3,1.5-0.5,2.4,0s1.5-1.2,1.5-2s-2.2-2.3-2.5-3.3
		c-0.3-2.5-0.5-4.9-0.5-7.4c0-1-1.5-2.8-1.9-2.5s-1.4-2.8-2.2-3.5c-0.6-0.8-0.9-1.7-0.9-2.7c0-0.5-2.5-3.2-3.2-4.4s-1.5-1-1.6-0.5
		s-1.8,0.7-2.6,0.6s-1.4-3-1.4-4s-3.3-1.2-3.9-2.2s-2.7-0.5-3.1-1c-0.7-0.6-1.6-1-2.6-0.9c-0.3,0.2-0.2,8.1-0.6,10.1s-2.2,4-2.8,3.9
		s-0.2,1.5,0.1,1.4s-1.2,2.3-1.5,3.9s-1.8,0-2-1.5s-1.8-3.4-2.2-3s-1.4-0.6-1.8-0.2s-3.4-1.7-4.7-2.4s-1.8-4.3-2.6-4.7
		s-0.1-0.8-0.1-1.4s2.4-2.7,3.1-3.5c1.3-1.7,2.8-3.4,4.3-5c1-0.8,1.8-2.6,1.6-3s4.4-1.8,5.7-2.2s2.3-3.9,2.5-4.9
		c0-1.2-0.5-2.3-1.4-3.1c-0.6-0.2,1.7-0.3,2.5,0.1s3.1-0.7,4.1-0.2l4.2,2.5L92.9,62l-0.6,4.3c-3.6,1.5-4.7,4.1-3.4,4s7,2.5,8.6,3.6
		s2.2-1.7,2.6-2.6c0.4-1.4,0.4-2.8,0-4.2c-0.5-0.6,1.8-0.3,2.5,0.2s1.4-0.6,1.8-0.9s0.7-2.6,1-3.1s-1-0.9-1.1-1.6s-2.6-1.7-3.4-2.2
		c-0.8-0.6-1-1.6-0.6-2.5c0.3-0.3-0.2-2.6-0.7-3.3s-3.1-1.4-4-1.4s-1.8-2-2.4-2.4c-1.6-0.4-3.3-0.6-4.9-0.5
		c-0.8,0.2-2.4-2.5-3.9-1.6s-3-0.9-3.6-1.4s-4.1,3.3-4,5.8s1.2,5,1.8,5.1s-0.1,2.4-0.7,3.1s-2-0.7-1.5-1.2s-1.5-3.3-2.2-4.3
		s-2.3-1.5-3.4-1.9l-2,2.3c0.3,1,0.4,2.1,0.2,3.1c-0.5,1.6-1.8,1.8-1.8,1.1c-0.4-0.4-0.9-0.6-1.5-0.6c-19.7,23.5-32,52.2-35.6,82.6
		c0.8,0.7,1.4,1.6,1.8,2.6c0.5,1.4,2.8,2.3,3.3,2.6s0.6-2.6,0.2-3.4s0.6-1.1,0.6-0.7s2.3,3.1,3,4.1s1.5,6.9,2.3,8.2s7.6,4,9.9,4.4
		c2.1,0.7,4,1.9,5.5,3.6c0.5,0.7,3.4,1,4,1.4c1,0.8,1.9,1.7,2.7,2.7c0.5,0.5,0.9,1.2,1.1,1.9c0,0.3,3.9,1.8,4.9,2.8
		c0.8,0.7,1.9,0.8,2.8,0.3c0.2-0.5,1,2,1.5,3s0.5,3,0.1,3.3s-0.8,4.2-1.5,5s-2,6.5-1.7,7.6c0.6,1.5,1.7,2.8,3,3.7
		c0.4,0.2,0.6,0.8,0.3,1.2c0,0,0,0.1,0,0.1l-0.4,0.3c-0.6,0-0.3,5.6,1.1,6.4S77.5,204.7,77.2,205.1z"/>
	<path class="st2" d="M95.8,108.9"/>
	<path class="st1" d="M85,42.2c1.8-0.3,5-0.9,5.2-1.4c0.1-0.7,0.1-1.5-0.1-2.2H91c0.7,0,1.9-3.9,2.6-4.8s5-2.3,6-2.8
		s3.3-2.7,4.1-3.1s2.2-2.3,1.9-2.6s3-2.3,4.1-2.7s1.8-1.8,1.4-1.9s-6.8,3.4-12.8,6.8c-6.9,4.7-13.4,9.9-19.5,15.6L85,42.2z"/>
	<path class="st1" d="M199.4,238.9c1.9-1.1,5.5-6.2,6.6-7.3s1.9-4.9,2.2-5.7c0.6-1,1.5-1.8,2.5-2.4c0.6-0.2,2.6-8.6,4.4-10.6
		s3.9-10.8,3.6-14.1s1.1-9.3,1.6-10.8c0.8-1.7,1.9-3.3,3.3-4.7c2.3-2.9,4.4-6,6.4-9.2c1.4-2.3,2.7-7.3,2.4-8.5s-3.3-2-3.9-1.4
		s-3.4,1-4.3,1s-3-4.9-4.2-5.8s-2.4-6.6-3.2-7.6c-1.1-1.5-2.2-2.9-3.4-4.3c-0.7-0.6-0.8-3.5-0.9-4.3s1.2,0.5,1.5,1.7
		s3.5,5.9,4.5,7.5s3.7,6.7,4.4,8.3s6.7,0.8,8.7-0.1s4.4-2.5,4.5-3.1s3.2-1.9,4.1-2.6s1.6-4.3,2.2-4.9s-0.5-4.1-1.1-5.1
		s-3.7-1.8-4.4-1.5s-1.9-2.3-2.5-3.3s-2.8-2.3-3.1-3c0-0.8,0.4-1.5,1-2c0.3-0.2,4.8,2.8,6,4.4c1.2,1.5,2.2,3.2,3,4.9
		c0.2,0.6,3.7,0.7,4.5,0.1c0.5-0.5,1.2-0.5,1.7,0c0,0,0.1,0.1,0.1,0.1l0.2,0.2h1l3.9-0.6c1.2,1.1,2,2.5,2.3,4.1
		c0.3,0.9,1,1.7,1.8,2.2c0.7,0.1,1.2,2.6,1.5,3.3c1,1.9,2,3.9,2.8,5.9c0.7,1.9,1.6,3.8,2.7,5.5c0.5,1.2,0.7,2.6,0.8,3.9
		c0.3,1,1.2,1.7,2.3,1.8c0.8-0.1,2.6-5.6,3.1-7.6s1.8-3.7,2.2-3.7s0.7-1.1,0.7-1.6s2.2-0.3,2.4-0.9s0.8-4.2,1.6-4.8
		c1.4-1,2.9-1.9,4.5-2.7c0.9-0.3,3.5,1.8,4.1,2.8c0.6,1.2,0.9,2.6,0.8,4c-0.2,0.3,1.2,2.6,2.6,2.6s1.7,1.7,1.8,2.3s1.8,2.4,2.2,3.2
		c0.3,1.2,0.3,2.3,0,3.5c-0.1,1.4-0.1,2.8,0.1,4.2c0.2,0.8,4.3,5,5.9,6.2s2.3-2.6,1.5-3.7s-3.5-4-4.1-4.8s-0.7-4.2-0.5-5.1
		s2.4,0.5,3.2,1.1c0.9,0.7,1.6,1.6,2,2.6c0,0.5,5.6-2.6,5.8-5.9s2-7.2,2.2-8.1c0.1-0.9-0.3-1.7-1-2.2c-0.5-0.1,0.8-2.5,2.4-2.5
		s5.2-4.1,6.1-5.8c0.8-1.2,1.7-2.3,2.8-3.2c0.8-1.8,1.3-3.7,1.6-5.7c0.2-1.6-0.9-4.1-1-5c-0.4-1.2-1-2.3-1.8-3.3
		c-0.4-1-0.6-2.2-0.5-3.3c0.1-0.3,1.6-0.8,1.7-1.2s1.7-2,1.6-2.8s0.9,1,1.7,1.6s1.5,4.7,2.4,5s4.5-4.2,4.1-7.3s1-6.9,1.9-7.3
		s2.4-2.7,3.5-4.4c-8.1-23.2-21.4-44.2-39-61.3h-0.6l-1.4-0.2c-2.3-0.5-3.5-2.8-3.2-3.4c0.1-0.3,0.1-0.7,0-1
		c-1.2-1.1-2.5-2.3-3.9-3.3h-2.8c-1.7-0.2-3.3-0.7-4.8-1.5c-0.5-0.5-2.3,0.5-2.4,1.5s-3.2,1.4-3.4,2.2c-0.5,0.7-1.4,0.9-2.2,0.5
		c-0.2-0.5-3.2,1-4.5,1.1c-1.6,0.3-3.2,0.9-4.7,1.6c-1,0.6-1.8,1.4-2.4,2.4c-0.7,0.8-1.6,1.4-2.6,1.8c-0.6,0.2-0.5,2.8,0.2,3.3
		s-1.4-0.3-2.4-0.8s-1.9,1.1-2.3,1.7s-1.1-0.3-1.1-1.1s-2.4-1.4-2.6-0.8s-1.9-0.2-2.6-0.6s-3.6,2.7-4.8,3.9s-6.4,1.9-7.3,1.6
		s-1.9,2.3-1.1,2.5h-3.2c-2.6,0.6-5.1,1.5-7.5,2.8c-0.5,0.4-1.3,0.4-1.7-0.1c-0.2-0.2-0.3-0.4-0.3-0.7c0-0.7-1.8-1.2-2.3-1.4
		s-1.6,3.5-2.5,4.2s-2-2.8-4.3-3.5s-5.7-2.7-6.7-3s-3-2.3-3.5-3s-3.4-1-4.3-1s-3.9,1.7-4.7,2.3s-1.9,0.5-2.4,0.8l-5,4.4
		c-1.2,1-3.5,5.3-4.2,6.5c-0.5,0.7-1.3,1.2-2.2,1.2c-0.5,0.4-0.8,1-0.8,1.6c0,0.5-3.7,2.4-4.2,4.1s0.5,5.7,0.5,7s1.4,4.2,2.4,4.2
		s0.6,2.4,0.2,3.1s0.7,1.4,0.6,1.9s-2.6,1.4-3.4,1.6c-1.1,0.7-1.9,1.6-2.3,2.8c-0.1,0.6-2.6,1-3.5,1.8c0.2-0.6,0.4-1.2,0.7-1.8
		c0.3-1,0-2-0.6-2.8c-0.3-0.3-0.6-4.9-1.2-5.9c-0.8-1.1-1.7-2.1-2.6-3c-0.3-0.3,0.2-1.5,0.6-2s-2.2-0.8-2.7-0.5s-1,4.9-1.2,6.1
		c0,1.3,0.6,2.5,1.6,3.2c0.5,0.1,0.2,2.3-0.6,2.4s-1.6,3.3-1.1,4.1s-0.6,2.2-1,2.5s3.2,0.1,4.9,0.1c1-0.1,2,0.2,2.8,0.8
		c-0.1,0.1-3.2,0.6-3.7,1.2s-2.6,2-3,2.6s0.7,1.7,1.5,1.7s1.8,3,2.5,3.5c0.5,0.8,0.6,1.8,0.1,2.6c-0.2,0.5-4.4-0.2-5.9,0.1
		s-3.5,3.6-3.6,4.9c0,1.9,0.2,3.9,0.5,5.8c0.1,1,3.4,1.6,4.1,2s3.7,0,4.4,0.3s2.7-3.2,3.2-4.8s3.7-4.5,4.4-5.7s4.2-0.9,5.1-1.5
		s0.5,2.7,0.8,4.5s3.9,1.6,3.3-0.1s0.3-2.4,0.5-1.8s3.4,1.9,4.1,2.8s0.5,3-0.2,3s-0.8,2.2,0,2.5s1.8-2.5,2.6-3s1.5-2.2,1.1-2.3
		s0.7-1.7,1.1-1.1c-0.8-1.7-1.9-3.4-3.2-4.8c-1.5-1.5-0.3-0.8,2.2,1.4l1.8,2.5c0.3,0.5,0.8,1.8,1.1,2.3l0.5,0.7
		c0.4,1.3,0.6,2.6,0.7,4c0.3,1,1.2,1.7,2.3,1.8c0.5-0.1,1.1,0.1,1.4,0.5c-0.1,0.1,0.6,1.7,1.4,1.7s1.2-2.2,0.3-2.2s-0.7-3.2-0.8-4.7
		s0.6-2.5,0.9-2.5s0,2.8,0,3.5c0.1,1,0.4,1.9,0.8,2.8l0.9,0.7l1.9,1.5c2.8-0.8,6.7-0.1,6.5,0.5s2,0.7,2.2-0.2s0.2,0.1,0.2,0.7
		s-1.8,3.2-2.2,4.3s-6.9,0.3-9.8,0.1s-7,0.7-7.3,1.6s-4.7-1.9-6.7-2.7s-3.6-3.9-4-4.3s0.3-1.4,0.1-2s-4.8-0.7-6.1-0.2
		s-8.3,1.2-9.9,1.9s-4.1,0-4.9-0.1s-2.6,2.2-3.5,2.5s-2,3.6-2.6,7.2l-1.2,2.4l-0.8,1.6c-2.3,1.7-4.8,7.5-5.6,8.7s-1.4,9.5-1.4,12.4
		s2.4,8.7,3.2,10.5s4.9,5.2,6.4,6.1s6,1,7.5,1c1.8-0.2,3.2-1.5,3.7-3.2l2.2,0.2h1c0,1.2,3.3,2.2,4.1,2.6c1.2,0.3,2.4,0.3,3.5-0.1
		c0.6-0.1,1.4,5.6,0.9,7.3s1.1,7.5,1.6,9.3s2.5,6.6,2.6,8.3s-1.1,7.5-1.4,9.5s2.5,7.6,3.2,9.5c0.6,2.3,1,4.6,1.2,7
		c0,0.9,3,6.8,3.6,9.2S197.3,240.1,199.4,238.9z"/>
	<path class="st1" d="M329.5,167.1c0.1,0.5,2-1,3.2-1.2s1.8-3.2,0.9-3.4s-1.9-2.6-2.6-2.8s-1.8,1-1.8,1.9s-2,1.2-2.5,2
		s-0.3,1.2,0,1.2C327.8,165.4,328.7,166.2,329.5,167.1z"/>
	<path class="st1" d="M327.3,183.8c0.6-0.2,0-3.2-1.2-3.4s-4.4,4-3.9,6.4s1.2,2.3,1.6,1.7s2.3,0.3,2.8,0.5s0.6-0.3,0-1.2
		S326.7,184.1,327.3,183.8z"/>
	<path class="st1" d="M320.8,180.9c0.1-1,0.3-4.4,0.5-5.1s-1.8-2.6-2.8-3s-4.1,6.5-6.4,7.7s-3.1,5.5-2.5,6.4s5.3,1.5,6.1,2.2
		s1.7-0.1,2.3-0.2s0.3-0.5,0.1-0.6s1.6-2,1.9-3.3C320.4,183.7,320.6,182.3,320.8,180.9z"/>
	<path class="st1" d="M307.8,192.4c-1.7-0.7-3.9,0.3-4,1s6.8,1.8,9.2,2.4s3.7,0.8,3.3,0.5L307.8,192.4z"/>
	<path class="st1" d="M322.3,146.4c0.6-0.8-0.8-4.4-1.5-3.6s-0.1,3,0,3.7S321.7,147.2,322.3,146.4z"/>
	<path class="st1" d="M326.4,154.3c0.5-0.9-0.5-1.9-2-2.3s-1.2,4.2-0.6,4.8S326,155.2,326.4,154.3z"/>
	<path class="st1" d="M334.4,182.7c1.8,1.2,5.9,0.7,6-1.7C338.6,179.8,334.3,180,334.4,182.7z"/>
	<path class="st1" d="M333.4,126.4c-0.7,0.6-1,1.5-0.9,2.4h-0.3c-0.6,0-0.7,2.4,0,2.8s2.2-1.8,3-2.4c0.8-0.5,1.7-0.8,2.6-0.7
		c1.1-0.1,2.1-0.4,3.1-0.9c0.4-0.3,0.7-0.6,0.9-1c-0.3-1.7-0.8-3.4-1.1-5.2l-2,1.5L333.4,126.4z"/>
	<path class="st2" d="M291.6,175"/>
	<path class="st1" d="M303,185.6c-1.3-2.1-2.9-4-4.8-5.6l-0.7-1.2l-0.8-1.4c-0.7-1.5-3-2.6-3.2-3.1s-0.9,1.2-1.7,0.8l2.4,1.7
		c2,1.5,6.1,11.8,7.2,12.5S303.6,187,303,185.6z"/>
	<path class="st1" d="M270.4,168.9c-0.6,1.1,3,3.6,3.3,3.1c0-1.4-0.3-2.8-1-4C271.9,167.3,271,167.7,270.4,168.9z"/>
	<path class="st1" d="M222.6,223.8c0.1,1.2,2.6,2.2,3.3,1.9s2.7-3.9,3-4.9c0.3-1.3,0.5-2.6,0.6-3.9c0.1-0.7,0.3-1.3,0.6-1.9
		c0.5-0.8,0.8-1.7,1-2.7c0.2-1.4-1.5-7.8-1.5-9s-1.2,0.6-1.6,1.7s-3.5,3.5-4.3,4.4s-1.5,4.2-1.1,4.8c0.1,1.2-0.1,2.3-0.6,3.4
		C221.5,218.4,222.4,222.7,222.6,223.8z"/>
	<path class="st1" d="M106.2,268.8h2.2C108.6,266.4,106.1,266.8,106.2,268.8z"/>
	<path class="st1" d="M164.1,24.1c-1.2,0-2.5-0.2-3.6-0.8c-1.6-0.6-3.3-0.7-4.9-0.3c-1,0.5-0.3-2.5,1-2.7s0.2-2.3-1.2-2.3
		s-5.2-0.6-6-0.3c-1.1-0.1-2.2-0.3-3.2-0.7c-0.6-0.1-5.1,1.4-7.2,1.2c-2.8-0.1-5.6,0.1-8.4,0.5c-1.1,0.2-1.9,2.5-1.7,3.3
		s-5,0.8-6.6,0.8s-10.3,1.8-12.6,3.1s-4,4.4-3.3,4.4s-1.2,1.8-2.5,2.3s-4.1,0.6-4.8,1.2s0.7,1.1,0.9,1.6s1-0.3,1.8,0.1
		s3.3,0.6,4,0.9s-2.2,0.8-3.4,0.9s-1,2.6,0,3.1s3.9,0.7,4.1,0.2s3.3,0.5,4.7,0.7s2.4,3.5,2.8,4.3s0.5,3.3,0.5,4.1s2.4,2,2.8,1.6
		s0.3,1.1-0.7,1s-0.3,2.7,0.9,3.2s0.3,2.2-0.3,2.7s-0.3,2.2-1,2.8s2.6,6.4,2.5,9.3s1.8,5.3,2.5,5.3s3.1,0.6,3.4,1.2s1.5-0.5,1.9-0.9
		c0.8-1,1.5-2.1,2.2-3.2c0.8-1.2,2.4-7.2,2.6-7.8s3-0.2,3.6-0.6l3-2.2c0.5-0.5,4.4-2,5.6-2.8s2.8-4.1,3.7-4.9s-0.5-0.5-1.5-1.1
		c-0.5-0.3-0.7-1-0.4-1.5l0.2-0.3c0.2-0.3,3.5,0.5,4.5,0.9s3.2-1,2.4-1.6s-0.3-0.6,0-0.3s0.8-1.9,0.5-2.4s3.2-3.1,2.6-5.6
		s0.9-5.1,1.9-5.1s0.7-2.8-0.6-3.1s0-0.5,0.5-0.9c0.5-1.1,0.7-2.2,0.7-3.4c-0.2-0.5,1.8-1,2.2-1.6c1-0.8,2.2-1.4,3.5-1.8
		C164.4,26.4,164.9,24.1,164.1,24.1z"/>
	<path class="st1" d="M184.6,26.4c-1.1-0.3-3.4,0.9-3.1,1.6s-1.8-0.9-3.3-0.1s-1.9,3.4-1.2,3.7s1.1,2.4,1.1,2.8s2.8,0.1,3.6-0.5
		s0.6,2-0.1,2.8s0.2,2.2,1,2.3s1.8,1.9,2.7,1.9s2.3-3.2,2.5-4.3s3.1-0.2,4.3,0.1s1.7-4.3,0.3-5.1s-3.1-0.3-3.6-0.9
		c-0.6-0.6-1.4-1-2.2-1.1C186.3,29.6,185.7,26.7,184.6,26.4z"/>
	<path class="st1" d="M195.6,28.7c1.9,0,3.8-0.7,5.2-2c0.6-0.5-6.1-1.8-8.7-1.9s-4.5,0.2-4.5,0.8S193.5,28.3,195.6,28.7z"/>
	<path class="st1" d="M154.9,89c-0.6-0.2-0.9,1.9-0.8,2.7s2.2,0.8,3.1,0.6c0.8-0.1,1.4-0.8,1.5-1.6c0-0.7-1.2-4-1.7-4
		S155.5,89.2,154.9,89z"/>
	<path class="st1" d="M161.5,63.2c-0.5-0.8-3.9-0.7-4.8-0.7c-1.4-0.3-2.8-0.8-4-1.5c-0.6-0.6-0.8,2.2-1.6,2.5s0.5,0.8,0.7,0.6
		s0,1.4-0.5,1.9s2.3,0.9,2.6,1.8c0.5,0.9,1.4,1.4,2.4,1.2c1-0.1,3.1-1.2,3.9-1.4S162,64.1,161.5,63.2z"/>
	<path class="st1" d="M235,43.2c1.1-1.1,6.1-2.8,6.7-4.1c0.4-0.8,0.2-1.7-0.6-2.2c0,0,0,0,0,0h-0.2c-0.5,0.1-0.9,0.4-1.2,0.8
		c-0.1,0.2-5.8,1.5-7.5,2.4c-1.6,0.7-3.1,1.7-4.4,2.8c-0.7,0.7-1.9,6.4-2.3,6.9s1.8,2.8,2.8,3.5c0.9,0.3,1.9,0.4,2.8,0.2
		c0.5-0.1-0.5-4-1-5.3S233.9,44.5,235,43.2z"/>
	<path class="st1" d="M229,28.6c1.8,1.8,2.8-0.8,4.9-0.6C233.9,24.1,228.8,25.6,229,28.6z"/>
	<path class="st1" d="M265.2,29.4c0,0.7,5.1,1.2,6.7,0.9s-0.3-2.6-2.5-2.5S265.2,28.7,265.2,29.4z"/>
	<path class="st1" d="M76.2,68c-0.6,0.5,0,3.1,0.9,3.1s2.7-3.9,4-3.1s2.2,1,1.9,0.7s-3.9-1.9-4.3-2.3S76.8,67.5,76.2,68z"/>
	<path class="st1" d="M89.5,154.8c0,0.5,2.3,0.3,2.6-0.3s0.1-1.2-0.5-1.2C90.7,153.5,90,154.1,89.5,154.8z"/>
	<path class="st1" d="M79.4,151c1-0.2,0.6,1.5,0.8,2.2s2.8,1.1,3.4,1.6s1.8-0.8,2.8-0.7s-0.3-3.6-2-3.5s-3.1-1.6-3.5-1.8
		c-1.1-0.5-2.1-1.1-3-1.8c-0.6-0.5-5-0.8-6.5-0.8c-1.4,0.1-2.6,0.9-3.4,2c-0.2,0.5,2.4,0.9,3.1,0.5s4.2,0.5,5,1.2
		C77,150.7,78.2,151.1,79.4,151z"/>
	<path class="st1" d="M74.6,154.8c0,0.5,2.3,0.1,2.8,0.1s0.6-0.5,0-0.8S74.6,154.3,74.6,154.8z"/>
	<path class="st1" d="M76.2,143c-0.6-0.2-1,0.7-1,1.1c0,0.4,0.3,0.7,0.7,0.8C76.3,144.9,76.9,143.2,76.2,143z"/>
	<path class="st1" d="M81.1,143.3c-0.3-0.5-0.9-0.8-1.5-0.8c-0.3,0-0.5,0.7-0.5,1.7S81.2,143.7,81.1,143.3z"/>
	<path class="st1" d="M84.5,148.6c0.9-0.5,1-1.5,0.5-1.5s-1.6-1.6-2.2-1.8s-1,1-1,1.5c-0.1,0.4,0.2,0.7,0.6,0.8c0,0,0,0,0,0h0.1
		C82.9,147.5,83.6,149.1,84.5,148.6z"/>
	<path class="st1" d="M341.4,184.8c-0.5,0.2-2.7,0.5-3.1,0.1s-0.7,0.9-1.2,1.1c-0.2,0.2-0.2,0.6,0,0.8c0.2,0.2,0.4,0.2,0.6,0.2
		c0.8-0.3,2.7,0.9,4.4,2c0.3-1.7,0.7-3.5,0.9-5.3L341.4,184.8z"/>
	<path class="st1" d="M77.2,205.1c-0.2,0.5,2.6,3.3,3.6,4.3c1.6,2.2,2.9,4.7,3.9,7.3c0.3,1.6,0.3,3.1,0,4.7c0.1,0.8,0.3,1.6,0.6,2.4
		c0.1,0.6-0.9,5.1-0.6,7s-2.2,7.6-2,10.6s1.4,6.6,1.8,6.4s0.7,2.6-0.1,3s-1.9,2.6-1.4,2.7s0,2.4,0.1,3.3s0.9,6.9,1,8.4
		s2.3,5.1,2.7,6.4s0.9,3.5,1,3.9l0.3,0.8c0.8,0.2,1.6,0.6,2.3,1c0.5,0.3,3.9,0.1,5-0.1s0.1-1.2-0.3-1.7s-0.9-3.2-1.5-3.4
		s-0.8-3.6-0.3-4.4s2.5-1.9,2.7-2.6s0.2-3.5-0.2-4s0.1-4-0.2-5.8s3.1-3.4,3.3-4.8s4-3,4.8-3.6s1.6-4.8,1.1-5.6s1.4-1.6,2.2-1.6
		l2-0.6c0.2,0,1.2-1.8,1.7-2.2s1.6-4.7,2.5-5.3c0.9-1.1,1.5-2.5,1.7-4c0.4-1.3,1-2.5,1.9-3.6c0.5-0.7,4-2.3,4.7-2.5s1.6-5.9,1.8-8
		c0.4-1.9,0.8-3.7,1.4-5.5c0-0.7,1.1-1.2,1.4-1.5s1-2.8,1.6-3.4s2.5-3.1,2.5-3.6c0.1-1.1,0.4-2.2,0.7-3.2v-3.5
		c-0.6-1.7-2.5-3.9-3-3.3s-2.6-1.5-3.7-1.9c-1.5-0.4-3-0.7-4.5-0.7c-0.7,0-3.1-1.9-4.2-2.3c-1.5-0.3-2.9-0.6-4.3-1.1
		c-0.5-0.3-1.1-4.4-3.4-5.8s-6.1-4.5-6.6-5.7s-4.7-3.5-6-4.3s-3.3-0.9-3.5-0.6s-1.9-2.3-2.7-3s-3.4-1.2-3.5-0.7s-1.8,0.2-2.2-0.2
		s-1.7,0.2-2.4,0.5s-2.7,3.4-3.7,4.2s-2.2-0.7-2.8-1c-1.3,0-2.6,0.3-3.7,1c-0.7,0.5-2.2-3.4-1.8-5.2s-1.6-5.3-3.2-5.5
		s-1.9-3.9-1.7-5.2s-2.7-2.3-3.5-2.4s-2.6,1.8-3,2.8s-7.3-1.2-6.5-5.5s4.1-8.5,4.9-9s5.2-0.7,6.2-0.1c0.6,0.3,1.4,0.3,2-0.2
		c1.7-0.1,3.3,0,4.9,0.5c1,0.5,2.6,4.7,3.7,5.1s1.5-2.7,1.7-3.5c-0.1-1.1-0.4-2.3-0.8-3.3c-0.2-0.6,1.8-5.7,3.5-6.5s3.5-3.7,3.3-4.2
		s1.4-0.9,1.7-1.1s0-4.3,0.6-5.2c1.5-1.3,3.1-2.4,4.9-3.2c1-0.5,1.7-3,1.4-3.5s2.6-3,4.2-3.5s2.8,0.9,2.5,1l3.3-1.8
		c0.9-0.6,0-2.6-0.7-3.2s-0.2-2.7,0.6-3c0.8-0.6,1.3-1.5,1.2-2.5c-0.2-0.3,3.4,0.3,4.8-0.7s0.3,2.4-0.6,3.9
		c-0.5,0.7-0.3,1.7,0.4,2.2c0.3,0.2,0.6,0.3,1,0.3c0.7,0,1.3,0.4,1.5,1.1c0.1,0.3,1.5-0.5,2.4,0s1.5-1.2,1.5-2s-2.2-2.3-2.5-3.3
		c-0.3-2.5-0.5-4.9-0.5-7.4c0-1-1.5-2.8-1.9-2.5s-1.4-2.8-2.2-3.5c-0.6-0.8-0.9-1.7-0.9-2.7c0-0.5-2.5-3.2-3.2-4.4s-1.5-1-1.6-0.5
		s-1.8,0.7-2.6,0.6s-1.4-3-1.4-4s-3.3-1.2-3.9-2.2s-2.7-0.5-3.1-1c-0.7-0.6-1.6-1-2.6-0.9c-0.3,0.2-0.2,8.1-0.6,10.1s-2.2,4-2.8,3.9
		s-0.2,1.5,0.1,1.4s-1.2,2.3-1.5,3.9s-1.8,0-2-1.5s-1.8-3.4-2.2-3s-1.4-0.6-1.8-0.2s-3.4-1.7-4.7-2.4s-1.8-4.3-2.6-4.7
		s-0.1-0.8-0.1-1.4s2.4-2.7,3.1-3.5c1.3-1.7,2.8-3.4,4.3-5c1-0.8,1.8-2.6,1.6-3s4.4-1.8,5.7-2.2s2.3-3.9,2.5-4.9
		c0-1.2-0.5-2.3-1.4-3.1c-0.6-0.2,1.7-0.3,2.5,0.1s3.1-0.7,4.1-0.2l4.2,2.5L92.9,62l-0.6,4.3c-3.6,1.5-4.7,4.1-3.4,4s7,2.5,8.6,3.6
		s2.2-1.7,2.6-2.6c0.4-1.4,0.4-2.8,0-4.2c-0.5-0.6,1.8-0.3,2.5,0.2s1.4-0.6,1.8-0.9s0.7-2.6,1-3.1s-1-0.9-1.1-1.6s-2.6-1.7-3.4-2.2
		c-0.8-0.6-1-1.6-0.6-2.5c0.3-0.3-0.2-2.6-0.7-3.3s-3.1-1.4-4-1.4s-1.8-2-2.4-2.4c-1.6-0.4-3.3-0.6-4.9-0.5
		c-0.8,0.2-2.4-2.5-3.9-1.6s-3-0.9-3.6-1.4s-4.1,3.3-4,5.8s1.2,5,1.8,5.1s-0.1,2.4-0.7,3.1s-2-0.7-1.5-1.2s-1.5-3.3-2.2-4.3
		s-2.3-1.5-3.4-1.9l-2,2.3c0.3,1,0.4,2.1,0.2,3.1c-0.5,1.6-1.8,1.8-1.8,1.1c-0.4-0.4-0.9-0.6-1.5-0.6l-2,2.6l-2,2.6l-2,2.8l-1.8,2.5
		l-2.6,3.9L52.9,77c-0.7,1-1.2,2.2-1.9,3.3c-0.5,0.7-0.9,1.5-1.2,2.3l-1.9,3.5l-1,2c-1.4,2.7-2.7,5.6-4,8.5v0.2l-1.7,4.3l-0.7,1.6
		l-1.6,4.4l-0.2,0.7c-1.7,5-3.2,10.1-4.4,15.3c-0.1,0.3-0.1,0.7-0.2,1c-1.2,5.5-2.2,11.1-2.8,16.7l0,0c0.8,0.7,1.4,1.6,1.8,2.6
		c0.5,1.4,2.8,2.3,3.3,2.6s0.6-2.6,0.2-3.4s0.6-1.1,0.6-0.7s2.3,3.1,3,4.1s1.5,6.9,2.3,8.2s7.6,4,9.9,4.4c2.1,0.7,4,1.9,5.5,3.6
		c0.5,0.7,3.4,1,4,1.4c1,0.8,1.9,1.7,2.7,2.7c0.5,0.5,0.9,1.2,1.1,1.9c0,0.3,3.9,1.8,4.9,2.8c0.8,0.7,1.9,0.8,2.8,0.3
		c0.2-0.5,1,2,1.5,3s0.5,3,0.1,3.3s-0.8,4.2-1.5,5s-2,6.5-1.7,7.6c0.6,1.5,1.7,2.8,3,3.7c0.4,0.2,0.6,0.8,0.3,1.2c0,0,0,0.1,0,0.1
		l-0.4,0.3c-0.6,0-0.3,5.6,1.1,6.4S77.5,204.7,77.2,205.1z"/>
	<line class="st3" x1="95.8" y1="108.8" x2="95.8" y2="108.8"/>
	<path class="st1" d="M85,42.2c1.8-0.3,5-0.9,5.2-1.4c0.1-0.7,0.1-1.5-0.1-2.2H91c0.7,0,1.9-3.9,2.6-4.8s5-2.3,6-2.8
		s3.3-2.7,4.1-3.1s2.2-2.3,1.9-2.6s3-2.3,4.1-2.7s1.8-1.8,1.4-1.9s-6.8,3.4-12.8,6.8h-0.1l-5.1,3.6l-3.3,2.6l-1.7,1.4l-3.9,3.3
		l-0.8,0.7l-4.2,3.7L85,42.2z"/>
	<path class="st1" d="M185,119.3c-0.7,0-0.8,2.2,0,2.5s1.2-1.2,1.9-2.2v-8.7h-0.1c-0.9-0.9-0.8-0.9,0.1-0.2V56.5l-2,1.8
		c-1.2,1-3.5,5.3-4.2,6.5c-0.5,0.7-1.3,1.2-2.2,1.2c-0.5,0.4-0.8,1-0.8,1.6c0,0.5-3.7,2.4-4.2,4.1s0.5,5.7,0.5,7s1.4,4.2,2.4,4.2
		s0.6,2.4,0.2,3.1s0.7,1.4,0.6,1.9s-2.6,1.4-3.4,1.6c-1.1,0.7-1.9,1.6-2.3,2.8c-0.1,0.6-2.6,1-3.5,1.8s0.6-1.4,0.7-1.8
		c0.3-1,0-2-0.6-2.8c-0.3-0.3-0.6-4.9-1.2-5.9c-0.8-1.1-1.7-2.1-2.6-3c-0.5-0.3,0.2-1.5,0.6-2s-2.2-0.8-2.7-0.5s-1,4.9-1.2,6.1
		c0,1.3,0.6,2.5,1.6,3.2c0.5,0.1,0.2,2.3-0.6,2.4s-1.6,3.3-1.1,4.1s-0.6,2.2-1,2.5s3.2,0.1,4.9,0.1c1-0.1,2,0.2,2.8,0.8
		c-0.1,0.1-3.2,0.6-3.7,1.2s-2.6,2-3,2.6s0.7,1.7,1.5,1.7s1.8,3,2.5,3.5c0.5,0.8,0.6,1.8,0.1,2.6c-0.2,0.5-4.4-0.2-5.9,0.1
		s-3.5,3.6-3.6,4.9c0,1.9,0.2,3.9,0.5,5.8c0.1,0.9,3.4,1.6,4.1,2s3.7,0,4.4,0.3s2.7-3.2,3.2-4.8s3.7-4.5,4.4-5.7s4.2-0.9,5.1-1.5
		s0.5,2.7,0.8,4.5s3.9,1.6,3.3-0.1s0.3-2.4,0.5-1.8s3.4,1.9,4.1,2.8S185.7,119.3,185,119.3z"/>
	<path class="st1" d="M187,130.1l-1.7-0.8c-2-0.8-3.6-3.9-4-4.3s0.3-1.4,0.1-2s-4.8-0.7-6.1-0.2s-8.3,1.2-9.9,1.9s-4.1,0-4.9-0.1
		s-2.6,2.2-3.5,2.5s-2,3.6-2.6,7.2l-1.2,2.4l-0.8,1.6c-2.3,1.7-4.8,7.5-5.6,8.7s-1.4,9.5-1.4,12.4s2.4,8.7,3.2,10.5s4.9,5.2,6.4,6.1
		s6,1,7.5,1c1.8-0.2,3.2-1.5,3.7-3.2l2.2,0.2h1c0,1.2,3.3,2.2,4.1,2.6c1.2,0.3,2.4,0.3,3.5-0.1c0.6-0.1,1.4,5.6,0.9,7.3
		s1.1,7.5,1.6,9.3s2.5,6.6,2.6,8.3s-1.1,7.5-1.4,9.5s2.5,7.6,3.2,9.5c0.6,2.3,1,4.6,1.2,7c0.4,1.4,0.9,2.8,1.6,4.1V129.9l0,0
		L187,130.1z"/>
	<path class="st1" d="M106.2,268.8h2.2C108.6,266.4,106.1,266.8,106.2,268.8z"/>
	<path class="st1" d="M149.8,52.6c1.1,0.5,3.2-1,2.4-1.6s-0.3-0.6,0-0.3s0.8-1.9,0.5-2.4s3.2-3.1,2.6-5.6s1-5.1,1.9-5.1
		s0.7-2.8-0.6-3.1s0-0.5,0.5-0.9c0.5-1.1,0.7-2.2,0.7-3.4c-0.2-0.5,1.8-1,2.2-1.6c1-0.9,2.2-1.5,3.5-1.8c0.9-0.1,1.2-2.4,0.5-2.3
		c-1.2,0-2.5-0.2-3.6-0.8c-0.5-0.5-3.9-0.8-4.9-0.5s-0.3-2.5,1-2.7s0.2-2.3-1.2-2.3s-5.2-0.6-6-0.3c-1.1-0.1-2.2-0.3-3.2-0.7
		c-0.6-0.1-5.1,1.4-7.2,1.2c-2.8-0.1-5.6,0.1-8.4,0.5c-1.1,0.2-1.9,2.5-1.7,3.3s-5,0.8-6.6,0.8s-10.3,1.8-12.6,3.1s-4,4.4-3.3,4.4
		s-1.2,1.8-2.5,2.3S99.7,33.4,99,34s0.7,1.1,0.9,1.6s1-0.5,1.8,0s3.3,0.6,4,0.9s-2.2,0.8-3.4,0.9s-1,2.6,0,3.1s3.9,0.7,4.1,0.2
		s3.3,0.5,4.7,0.7s2.4,3.5,2.8,4.3s0.5,3.3,0.5,4.1s2.4,2,2.8,1.6s0.3,1.1-0.7,1s-0.3,2.7,0.9,3.2s0.3,2.2-0.3,2.7s-0.3,2.2-1,2.8
		s2.6,6.4,2.5,9.3s1.8,5.3,2.5,5.3s3.1,0.6,3.4,1.2s1.5-0.5,1.9-0.9c0.8-1,1.5-2.1,2.2-3.2c0.8-1.2,2.4-7.2,2.6-7.8s3-0.2,3.6-0.6
		l3-2.2c0.5-0.5,4.4-2,5.6-2.8s2.8-4.1,3.7-4.9s-0.5-0.5-1.5-1.1c-0.5-0.3-0.7-1-0.4-1.5l0.2-0.3C145.5,51.4,148.8,52.2,149.8,52.6z
		"/>
	<path class="st1" d="M184.6,26.4c-1.1-0.3-3.4,0.9-3.1,1.6s-1.8-0.9-3.3-0.1s-1.9,3.4-1.2,3.7s1.1,2.4,1.1,2.8s2.8,0.1,3.6-0.5
		s0.6,2-0.1,2.8s0.2,2.2,1,2.3s1.8,1.9,2.7,1.9c0.7-0.3,1.3-0.9,1.5-1.7v-9.8l0,0C186.3,29.6,185.7,26.7,184.6,26.4z"/>
	<path class="st1" d="M157.3,92.3c0.8-0.1,1.4-0.8,1.5-1.6c0-0.7-1.2-4-1.7-4s-1.4,2.4-2,2.2s-0.9,1.9-0.8,2.7
		S156.3,92.5,157.3,92.3z"/>
	<path class="st1" d="M154.1,67.9c0.5,0.9,1.4,1.4,2.4,1.2c1-0.1,3.1-1.2,3.9-1.4s1.5-3.7,1-4.5s-3.9-0.7-4.8-0.7
		c-1.4-0.3-2.8-0.8-4-1.5c-0.6-0.6-0.8,2.2-1.6,2.5s0.3,0.8,0.7,0.6s0,1.4-0.5,1.9S153.9,67.2,154.1,67.9z"/>
	<path class="st1" d="M76.2,68c-0.6,0.5,0,3.1,0.9,3.1s2.7-3.9,4-3.1s2.2,1,1.9,0.7s-3.9-1.9-4.3-2.3S76.8,67.5,76.2,68z"/>
	<path class="st1" d="M89.5,154.8c0,0.5,2.3,0.3,2.6-0.3s0.1-1.2-0.5-1.2C90.7,153.5,90,154.1,89.5,154.8z"/>
	<path class="st1" d="M79.4,151c1-0.2,0.6,1.5,0.8,2.2s2.8,1.1,3.4,1.6s1.8-0.8,2.8-0.7s-0.3-3.6-2-3.5s-3.1-1.6-3.5-1.8
		c-1.1-0.5-2.1-1.1-3-1.8c-0.6-0.5-5-0.8-6.5-0.8c-1.4,0.1-2.6,0.9-3.4,2c-0.2,0.5,2.4,0.9,3.1,0.5s4.2,0.5,5,1.2
		C77,150.7,78.2,151.1,79.4,151z"/>
	<path class="st1" d="M74.6,154.8c0,0.5,2.3,0.1,2.8,0.1s0.6-0.5,0-0.8S74.6,154.3,74.6,154.8z"/>
	<path class="st1" d="M76.2,143c-0.6-0.2-1,0.7-1,1.1c0,0.4,0.3,0.7,0.7,0.8C76.3,144.9,76.9,143.2,76.2,143z"/>
	<path class="st1" d="M81.1,143.3c-0.3-0.5-0.9-0.8-1.5-0.8c-0.3,0-0.5,0.7-0.5,1.7S81.2,143.7,81.1,143.3z"/>
	<path class="st1" d="M84.5,148.6c0.9-0.5,1-1.5,0.5-1.5s-1.6-1.6-2.2-1.8s-1,1-1,1.5c-0.1,0.4,0.2,0.7,0.6,0.8c0,0,0,0,0,0h0.1
		C82.9,147.5,83.6,149.1,84.5,148.6z"/>
	<path class="st4" d="M90.2,39c-0.1-0.1-0.8,0.3-0.5,0.6c0.2,0.1,0.4,0,0.5-0.2C90.3,39.3,90.3,39.1,90.2,39z"/>
	<path class="st4" d="M107.7,91.2c-0.1-0.1-0.8,0.3-0.6,0.6S108,91.5,107.7,91.2z"/>
	<path class="st5" d="M107,45.9H19.2C8.6,45.9,0,54.5,0,65.1v210.5c0,10.6,8.6,19.2,19.2,19.2H107c10.6,0,19.2-8.6,19.2-19.2V65.3
		c0.1-10.5-8.3-19.2-18.9-19.3c0,0,0,0,0,0L107,45.9L107,45.9z"/>
	<path class="st6" d="M46.5,60.9h33.2c0.9,0,1.7,0.8,1.7,1.7c0.1,0.9-0.6,1.6-1.5,1.7c0,0,0,0,0,0H46.5c-0.9,0-1.7-0.7-1.7-1.7
		C44.8,61.7,45.5,60.9,46.5,60.9C46.5,60.9,46.5,60.9,46.5,60.9z"/>
	<path class="st6" d="M63,280.7c-6.1,0-11.1-5-11.1-11.1s5-11.1,11.1-11.1c6.1,0,11.1,5,11.1,11.1C74,275.7,69.1,280.6,63,280.7z"/>
	<rect x="8.2" y="83.8" class="st6" width="109.6" height="162.3"/>
	<path class="st2" d="M63,261.9c-4.2,0.1-7.6,3.5-7.7,7.7c0,4.3,3.4,7.7,7.7,7.7s7.7-3.4,7.7-7.7C70.7,265.3,67.3,261.9,63,261.9
		L63,261.9z"/>
	<rect x="41.1" y="99.9" class="st7" width="70.1" height="6.9"/>
	<path class="st7" d="M32.7,103.4c0,5-4.1,9.1-9.1,9.1c-5,0-9.1-4.1-9.1-9.1c0-5,4.1-9.1,9.1-9.1S32.7,98.4,32.7,103.4
		C32.7,103.4,32.7,103.4,32.7,103.4z"/>
	<rect x="14.5" y="203.2" class="st7" width="97" height="2.9"/>
	<rect x="14.5" y="213.1" class="st7" width="97" height="2.9"/>
	<rect x="14.5" y="222.9" class="st7" width="97" height="2.9"/>
	<rect x="14.5" y="232.6" class="st7" width="70.4" height="2.9"/>
	<rect x="14.5" y="184.3" class="st7" width="64.5" height="6.9"/>
	<path class="st6" d="M41.5,150.4v-12.6h2.3l1.9,5l1.4,3.6l0,0c-0.1-1.4-0.2-3.5-0.2-5.8v-2.8h2.2v12.6h-2.4l-1.9-4.8
		c-0.5-1.2-0.9-2.4-1.2-3.7l0,0c0,1.2,0.1,3.2,0.1,5.8v2.8h-2.2L41.5,150.4z"/>
	<path class="st6" d="M56.5,144.9h-2.8v3.4H57v2.2h-5.7v-12.7h5.5v2.2h-3.1v3h2.8V144.9L56.5,144.9L56.5,144.9z"/>
	<path class="st6" d="M59.9,140.1h-2.3v-2.3h6.9v2.3h-2.3v10.3h-2.5v-10.3h0.1H59.9z"/>
	<path class="st6" d="M67.6,150.4l-2.2-12.6h2.5l0.6,5c0.1,1.5,0.2,2.8,0.5,4.4l0,0c0.1-1.6,0.5-3,0.7-4.4l0.9-5h1.9l0.8,5
		c0.2,1.5,0.5,2.8,0.6,4.4l0,0l0.5-4.4l0.6-5h2.4l-2.3,12.6h-2.2l-0.8-4.1c-0.2-1.1-0.3-2.6-0.6-4.1l0,0c-0.2,1.5-0.5,3-0.7,4.2
		l-0.8,4.1L67.6,150.4L67.6,150.4z"/>
	<path class="st6" d="M86.4,144c0,4.8-1.7,6.7-4.1,6.7s-4-3.1-4-6.5s1.4-6.5,4.2-6.5S86.4,141,86.4,144z M80.8,144.2
		c0,2.8,0.6,4.3,1.6,4.3s1.5-1.8,1.5-4.4s-0.3-4.2-1.5-4.2s-1.5,1.6-1.5,4.3L80.8,144.2z"/>
	<path class="st6" d="M87.9,138.1l2.7-0.2c1.2-0.1,2.4,0.2,3.4,0.9c0.7,0.7,1.1,1.6,1,2.6c0.1,1.3-0.7,2.6-1.9,3.2l0,0
		c0.9,0.3,1.2,1.1,1.6,2.5c0.2,1.2,0.4,2.3,0.8,3.4h-2.6c-0.3-1-0.5-2.1-0.6-3.1c-0.2-1.6-0.6-2-1.5-2h-0.3v5H88L87.9,138.1
		L87.9,138.1L87.9,138.1z M90.4,143.6h0.5c0.9,0,1.7-0.8,1.7-1.7v-0.2c0.1-0.9-0.5-1.6-1.3-1.8h-0.8L90.4,143.6L90.4,143.6z"/>
	<path class="st6" d="M96.8,137.8h2.5v5.7l0,0l0.6-1.6l1.7-4.1h2.7l-2.8,5.5l2.8,7.2h-2.7l-1.8-5.2l-0.6,1v4.2h-2.5v-12.7H96.8z"/>
	<g id="Page-1">
		<g id="xamagon">
			<path id="Logo" class="st6" d="M24.5,136c-0.6-0.1-1.2,0.1-1.5,0.6l-4.5,7.7c-0.3,0.5-0.3,1.1,0,1.6l4.5,7.7
				c0.3,0.5,0.9,0.8,1.5,0.7h9.1c0.6,0.1,1.2-0.2,1.5-0.7l4.5-7.7c0.3-0.5,0.3-1.1,0-1.6l-4.5-7.5c-0.3-0.5-0.9-0.7-1.5-0.6h-9.1
				V136z M24.6,139.7v-0.3h1.6l0.2,0.5l2.6,4.9l0,0l2.6-5l0.2-0.3h1.6c0.2,0.1,0.3,0.4,0.2,0.6l-2.6,4.8l2.6,4
				c0.1,0.1,0-0.3-0.2-0.3h-1.6c0,0.2-0.1,0.4-0.2,0.6l-2.6-4.3l0,0l-2.6,4.1c0-0.2-0.1-0.4-0.2-0.6h-1.6c-0.1,0.1-0.1,0.2-0.2,0.3
				l2.6-4.3l-2.6-4.5c-0.1-0.1,0-0.2,0.1-0.3c0,0,0,0,0,0h0.1v0.5L24.6,139.7z"/>
		</g>
	</g>
</g>
<g>
	<path class="st8" d="M21.2,146.5L21.2,146.5l0.8,0.8c0.3,1.2,0.7,2.7,1.3,4.5c0.1-0.4,0.2-0.9,0.3-1.4c0.3-2.2,0.6-3.6,0.8-4.2
		c1.5,0,2.2-0.1,2.3-0.1l3.5-0.1c0.4,0,0.7,0,0.9,0c0,0,0,0.1,0,0.1l0.8,0.7c0.2,0.7,0.5,3.3,0.9,7.9l0.1,1.5c0.2,2.7,0.4,5.1,0.5,7
		c-0.5,0.2-1.1,0.4-1.6,0.4h-3.9l-0.8-0.8h-0.1c0-0.3-0.1-0.6-0.1-0.9l-0.4,1.5c-0.3,0.1-0.7,0.1-1,0.2c-0.3,0-0.8,0.1-1.6,0.1
		c-0.7,0-1.2,0.1-1.6,0.2l-0.8-0.8c0,0-0.1,0-0.1,0c-0.1-0.3-0.2-0.6-0.4-1v1.1c0,0.5-0.3,0.8-1,0.8c-0.1,0-0.3,0-0.5-0.1
		c-0.2,0-0.4-0.1-0.5-0.1c-0.2,0-0.8,0-1.7,0c-0.3,0-0.5,0-0.5,0h-0.4c-0.3,0-0.6-0.1-0.8-0.3l-0.5-0.5c-0.1,0-0.2-0.1-0.3-0.3
		c0.3-1.3,0.5-3,0.6-5.2c0-1.2,0.1-2,0.1-2.4l0.2-3.4c0.1-2.1,0.4-3.7,0.9-4.7c0.8-0.3,1.6-0.5,2.4-0.6c0.2,0,0.4,0,0.5,0l0.6-0.1
		C20.4,146.5,20.9,146.4,21.2,146.5C21.2,146.4,21.2,146.5,21.2,146.5z M23,154.1c-0.9-2.7-1.6-5.1-2.2-7.2
		c-0.9,0.1-1.6,0.2-2.1,0.2c-0.8,0.1-1.5,0.2-2.1,0.5c-0.4,1-0.7,2.4-0.8,4.4l-0.3,5.7c-0.1,2.2-0.3,3.9-0.6,5c0,0,0.5,0,1.2,0
		c1.1,0,1.7,0,1.7,0c0.1,0,0.3,0,0.5,0.1c0.2,0,0.4,0.1,0.5,0.1c0.4,0,0.6-0.1,0.6-0.4c0-0.6,0-1.3,0-2.2l0.1-4
		c0.4,0.7,0.7,1.8,1,3.2c0.3,1.6,0.6,2.6,0.8,3.2c0.3,0,0.5,0,0.7-0.1c1.6-0.1,2.6-0.2,2.9-0.3c0.7-2.5,1.1-4.3,1.4-5.3
		c0.3,2.4,0.6,4.3,0.8,5.5h3.5c0.5,0,0.9-0.1,1.2-0.2c0-1.3-0.1-2.4-0.2-3.2l-0.4-5c-0.3-4.5-0.6-7-0.8-7.5c-0.3,0-1,0-2,0l-4,0.1
		c-0.1,0.5-0.4,1.8-0.6,3.8C23.8,152,23.5,153.3,23,154.1C23.1,154.1,23,154.1,23,154.1z"/>
	<path class="st8" d="M36.2,161.1c-0.1-0.1-0.1-0.1-0.2-0.2c-1.2-1.1-1.8-2.5-1.8-4.4c0-1,0.3-2.1,1-3.1c0.6-0.9,1.4-1.7,2.3-2.4
		c1-0.7,2-1.1,3-1.1c2,0,3.5,0.6,4.5,1.9l0.2,0.2c1.1,1.1,1.7,2.8,1.7,5.1c0,1.6-0.5,3-1.6,4.2c-1.1,1.2-2.5,1.8-4.1,1.8
		c-2,0-3.5-0.6-4.7-1.8L36.2,161.1z M44.6,152c-0.9-1.2-2.3-1.8-4.2-1.8c-0.9,0-1.8,0.3-2.8,1c-0.9,0.6-1.6,1.4-2.2,2.3
		c-0.6,1-1,2-1,3c0,1.8,0.6,3.2,1.7,4.2c1.1,1,2.5,1.5,4.3,1.5c1.5,0,2.8-0.6,3.9-1.7c1-1.1,1.6-2.4,1.6-3.9
		C45.9,154.5,45.5,153,44.6,152z M41.9,157.3c-0.4,0.6-1,0.9-1.7,0.9c-0.6,0-1.2-0.2-1.6-0.5c-0.4-0.4-0.6-0.9-0.6-1.5
		c0-0.7,0.2-1.3,0.8-1.9c0.5-0.7,1.1-1,1.8-1c0.6,0,1.1,0.2,1.5,0.6c0.3,0.4,0.5,0.9,0.5,1.5C42.5,156.2,42.3,156.8,41.9,157.3z
		 M41.9,154.3c-0.2-0.1-0.5-0.1-0.7-0.1c-0.6,0-1.1,0.3-1.5,0.9c-0.5,0.6-0.7,1.2-0.7,1.7c0,0.3,0,0.6,0.1,0.8
		c0.3,0.2,0.7,0.3,1.1,0.3c0.6,0,1.1-0.3,1.5-0.8c0.3-0.5,0.5-1,0.5-1.7C42.1,155,42.1,154.6,41.9,154.3z"/>
	<path class="st8" d="M49.3,161.1c-0.1-0.1-0.1-0.1-0.2-0.2c-1.2-1.1-1.8-2.5-1.8-4.4c0-1,0.3-2.1,1-3.1c0.6-0.9,1.4-1.7,2.3-2.4
		c1-0.7,2-1.1,3-1.1c2,0,3.5,0.6,4.5,1.9l0.2,0.2c1.1,1.1,1.7,2.8,1.7,5.1c0,1.6-0.5,3-1.6,4.2c-1.1,1.2-2.5,1.8-4.1,1.8
		c-2,0-3.5-0.6-4.7-1.8L49.3,161.1z M57.7,152c-0.9-1.2-2.3-1.8-4.2-1.8c-0.9,0-1.8,0.3-2.8,1c-0.9,0.6-1.6,1.4-2.2,2.3
		c-0.6,1-1,2-1,3c0,1.8,0.6,3.2,1.7,4.2c1.1,1,2.5,1.5,4.3,1.5c1.5,0,2.8-0.6,3.9-1.7c1-1.1,1.6-2.4,1.6-3.9
		C59,154.5,58.6,153,57.7,152z M55,157.3c-0.4,0.6-1,0.9-1.7,0.9c-0.6,0-1.2-0.2-1.6-0.5c-0.4-0.4-0.6-0.9-0.6-1.5
		c0-0.7,0.2-1.3,0.8-1.9c0.5-0.7,1.1-1,1.8-1c0.6,0,1.1,0.2,1.5,0.6c0.3,0.4,0.5,0.9,0.5,1.5C55.6,156.2,55.4,156.8,55,157.3z
		 M55,154.3c-0.2-0.1-0.5-0.1-0.7-0.1c-0.6,0-1.1,0.3-1.5,0.9c-0.5,0.6-0.7,1.2-0.7,1.7c0,0.3,0,0.6,0.1,0.8
		c0.3,0.2,0.7,0.3,1.1,0.3c0.6,0,1.1-0.3,1.5-0.8c0.3-0.5,0.5-1,0.5-1.7C55.2,155,55.2,154.6,55,154.3z"/>
	<path class="st9" d="M20.8,146.7l-4.3,0.7c0,0-0.1,0.2-0.4,1c-0.3,0.7-0.5,2.1-0.5,2.9s-0.3,4.1-0.3,4.8c0,0.7-0.2,5.9-0.5,6.3
		c-0.3,0.4,1.8,0.2,2.5,0.1s1.7,0.3,2,0.2c0.3-0.1,0.3-7.5,0.3-7.5l2.1,7.1l3.6-0.3l1.4-6.5l0.7,6.8l4.5-0.1l-1.3-16h-6.1l-1.4,8.1
		l-0.2,0L20.8,146.7z"/>
	
		<ellipse transform="matrix(0.3505 -0.9366 0.9366 0.3505 -119.7207 138.9133)" class="st10" cx="40.3" cy="155.8" rx="2.7" ry="2.4"/>
	<path class="st11" d="M42.4,150.6c-2.8-1.1-6,0.6-7.2,3.7c-1.2,3.1,0.2,6.4,3,7.5c2.8,1.1,6-0.6,7.2-3.7
		C46.5,155.1,45.2,151.7,42.4,150.6z M39.6,157.9c-0.5-0.3-0.6-1.3-0.1-2.3c0.5-1,1.4-1.5,1.9-1.2c0.5,0.3,0.6,1.3,0.1,2.3
		C41,157.6,40.1,158.2,39.6,157.9z"/>
	<path class="st8" d="M41,153.5c-0.9-0.3-2,0.4-2.5,1.6c-0.5,1.2-0.1,2.5,0.8,2.8c0.9,0.3,2-0.4,2.5-1.6
		C42.3,155.1,41.9,153.8,41,153.5z M41.5,156.7c-0.5,1-1.4,1.5-1.9,1.2c-0.5-0.3-0.6-1.3-0.1-2.3c0.5-1,1.4-1.5,1.9-1.2
		C42,154.7,42,155.7,41.5,156.7z"/>
	<path class="st12" d="M55.4,150.5c-2.8-1.1-6.1,0.6-7.2,3.7c-1.2,3.1,0.2,6.5,3,7.5c2.8,1.1,6.1-0.6,7.2-3.7
		C59.6,154.9,58.3,151.5,55.4,150.5z M52.6,157.7c-0.5-0.3-0.6-1.3-0.1-2.3s1.4-1.5,1.9-1.2c0.5,0.3,0.6,1.3,0.1,2.3
		C54,157.5,53.2,158,52.6,157.7z"/>
	<path class="st8" d="M54,153.3c-0.9-0.3-2,0.4-2.5,1.6c-0.5,1.2-0.1,2.5,0.8,2.9c0.9,0.3,2-0.4,2.5-1.6
		C55.3,154.9,54.9,153.6,54,153.3z M54.6,156.5c-0.5,1-1.4,1.5-1.9,1.2s-0.6-1.3-0.1-2.3s1.4-1.5,1.9-1.2
		C55,154.5,55.1,155.5,54.6,156.5z"/>
	<path class="st13" d="M93.7,154.5"/>
	<g>
		<path class="st8" d="M99.1,157c-0.1-7.6-7.8-7.5-12.8-6.4c0.1,2.1,0.2,5.7,0.3,7.8c0.2,3.8,0.4,7.6,0.6,11.4c0,1.1,0.2,1.8,0.3,3
			c0,0.4,0.1,0.6,0.4,0.9c0.3,0.3,0.8,0.3,1.2,0.3c0.9,0,1.9-0.1,2.7-0.6c0.7-0.5,0.5-1,0.5-1.7c0-0.2,0-0.4,0-0.6
			c-0.1-1-0.1-2-0.2-2.9c-0.1-1.3-0.1-2.5-0.2-3.8C91.9,164.3,99.2,163.3,99.1,157z M91.1,161.9c0,0-0.9-7.4-0.9-7.4
			c0-0.2,1.6-0.1,1.8-0.1c1.4,0,2.7,0.4,3.6,1.5c0.5,0.6,0.7,1.4,0.7,2.2c0,0.4,0,0.9-0.2,1.3c-0.5,1.1-1.8,1.9-2.9,2.2
			C93,161.7,91.1,162,91.1,161.9z"/>
	</g>
	<g>
		<path class="st14" d="M98.2,155.9c-0.3-7.2-7.4-6.5-11.8-5.4l1.2,22.1l3.8-0.5l-0.4-9.3C91,162.8,98.5,163,98.2,155.9z
			 M90.5,159.7c0,0-0.8-6.9-0.8-6.9c0-0.2,1.9-0.1,2.1-0.1c1.1,0.1,2.1,0.7,2.7,1.6c0.4,0.5,0.5,1.1,0.5,1.7c0,0.4-0.1,1-0.2,1.4
			c-0.4,0.9-1.1,1.5-1.9,1.8C92.8,159.3,90.5,159.9,90.5,159.7z"/>
	</g>
	<path class="st13" d="M108.4,154.5"/>
	<g>
		<g>
			<g>
				<g>
					<path d="M113.8,157c-0.1-7.6-7.8-7.5-12.8-6.4c0.1,2.1,0.2,5.7,0.3,7.8c0.2,3.8,0.4,7.6,0.6,11.4c0,1.1,0.2,1.8,0.3,3
						c0,0.4,0.1,0.6,0.4,0.9c0.3,0.3,0.8,0.3,1.2,0.3c0.9,0,1.9-0.1,2.7-0.6c0.7-0.5,0.5-1,0.5-1.7c0-0.2,0-0.4,0-0.6
						c-0.1-1-0.1-2-0.2-2.9c-0.1-1.3-0.1-2.5-0.2-3.8C106.6,164.3,113.9,163.3,113.8,157z M105.8,161.9c0,0-0.9-7.4-0.9-7.4
						c0-0.2,1.6-0.1,1.8-0.1c1.4,0,2.7,0.4,3.6,1.5c0.5,0.6,0.7,1.4,0.7,2.2c0,0.4,0,0.9-0.2,1.3c-0.5,1.1-1.8,1.9-2.9,2.2
						C107.7,161.7,105.9,162,105.8,161.9z"/>
				</g>
				<g>
					<path class="st10" d="M113.8,157c-0.1-7.6-7.8-7.5-12.8-6.4c0.1,2.1,0.2,5.7,0.3,7.8c0.2,3.8,0.4,7.6,0.6,11.4
						c0,1.1,0.2,1.8,0.3,3c0,0.4,0.1,0.6,0.4,0.9c0.3,0.3,0.8,0.3,1.2,0.3c0.9,0,1.9-0.1,2.7-0.6c0.7-0.5,0.5-1,0.5-1.7
						c0-0.2,0-0.4,0-0.6c-0.1-1-0.1-2-0.2-2.9c-0.1-1.3-0.1-2.5-0.2-3.8C106.6,164.3,113.9,163.3,113.8,157z M105.8,161.9
						c0,0-0.9-7.4-0.9-7.4c0-0.2,1.6-0.1,1.8-0.1c1.4,0,2.7,0.4,3.6,1.5c0.5,0.6,0.7,1.4,0.7,2.2c0,0.4,0,0.9-0.2,1.3
						c-0.5,1.1-1.8,1.9-2.9,2.2C107.7,161.7,105.9,162,105.8,161.9z"/>
				</g>
			</g>
		</g>
	</g>
	<g>
		<g>
			<g>
				<g>
					<path class="st15" d="M112.9,155.9c-0.3-7.2-7.4-6.5-11.8-5.4l1.2,22.1l3.8-0.5l-0.4-9.3C105.7,162.8,113.3,163,112.9,155.9z
						 M105.3,159.7c0,0-0.8-6.9-0.8-6.9c0-0.2,1.9-0.1,2.1-0.1c1.1,0.1,2.1,0.7,2.7,1.6c0.4,0.5,0.5,1.1,0.5,1.7
						c0,0.4-0.1,1-0.2,1.4c-0.4,0.9-1.1,1.5-1.9,1.8C107.5,159.3,105.3,159.9,105.3,159.7z"/>
				</g>
				<g>
					<path class="st10" d="M112.9,155.9c-0.3-7.2-7.4-6.5-11.8-5.4l1.2,22.1l3.8-0.5l-0.4-9.3C105.7,162.8,113.3,163,112.9,155.9z
						 M105.3,159.7c0,0-0.8-6.9-0.8-6.9c0-0.2,1.9-0.1,2.1-0.1c1.1,0.1,2.1,0.7,2.7,1.6c0.4,0.5,0.5,1.1,0.5,1.7
						c0,0.4-0.1,1-0.2,1.4c-0.4,0.9-1.1,1.5-1.9,1.8C107.5,159.3,105.3,159.9,105.3,159.7z"/>
				</g>
			</g>
		</g>
	</g>
	<path class="st8" d="M61.7,151.8l-0.6,10l0.9,0.7l2.8-0.3c0,0-1-4.6-0.3-6c0,0,0.7-2.6,2.1-2.5c1.4,0.1,1.3,2.2,1.2,3.1
		c0,0.7-1.8,5-1.8,5l0.9,0.7l3.2,0.4c0,0,0-6.3,0.5-7.8c0,0,0.3-1.4,1.3-1.2c1,0.2,1,1.6,1,2.4c0,0.9-0.2,1.7-0.3,2.6
		c-0.2,1-1.3,3.1-1.3,3.1l0.9,0.7l3.3-0.3c0-0.5,0-1.1-0.1-1.6c0-1-0.1-2,0-3c0-0.9,0.2-1.7,0-2.6c-0.1-0.7-0.4-1.6-0.8-2.1
		c-0.9-1.2-1.6-1.5-2.7-1.5c-0.4,0-0.8,0-1.1,0.1c0,0-1.1,0.2-1.6,1.1c0,0-1-1.1-2.5-1.1c-1.3,0-2.5,0.9-2.5,0.9l0-0.6L61.7,151.8z"
		/>
	<path class="st16" d="M60.8,151.1l0.3,10.7l2.8-0.3c0,0-1-4.6-0.3-6c0,0,0.7-2.6,2.1-2.5c1.4,0.1,1.3,2.2,1.2,3.1s-1,5.6-1,5.6
		l3.2,0.4c0,0,0-6.3,0.5-7.8c0,0,0.3-1.4,1.3-1.2c1,0.2,1,1.6,1,2.4c0,0.9-0.2,1.7-0.3,2.6c-0.2,1.3-0.5,3.4-0.4,3.7l3.3-0.3
		c0-0.5,0-1.1-0.1-1.6c0-1-0.1-2,0-3c0-0.9,0.2-1.7,0-2.6c-0.1-0.7-0.4-1.6-0.8-2.1c-0.9-1.2-1.6-1.5-2.7-1.5c-0.4,0-0.8,0-1.1,0.1
		c0,0-1.1,0.2-1.6,1.1c0,0-1-1.1-2.5-1.1c-1.3,0-2.5,0.9-2.5,0.9l0-0.6L60.8,151.1z"/>
	<path class="st8" d="M85,163.3l-0.2-6.7c0-0.4-0.1-5.2-3.4-5.3c-3.2-0.1-4.3,3.9-4.3,3.9l0.3,0.7l2.5,0.2c0.1-0.5-0.1-2.2,1.4-2.1
		c1.5,0.1,1.3,2.8,1.3,2.8l-1.8-0.2c-0.1,0-4.7-0.7-4.3,2.6c0.4,3.3,5.5,2.7,5.5,2.7l-0.1,0.9L85,163.3z M78.7,159.3
		c0-1.5,3.6-0.6,3.6-0.6l-0.1,1.4C81.8,160.2,78.7,160.8,78.7,159.3z"/>
	<path class="st17" d="M84.7,162.6l-0.2-6.7c0-0.4-0.1-5.2-3.4-5.3c-3.9-0.1-4,4.6-4,4.6l2.5,0.2c0.1-0.5-0.1-2.2,1.4-2.1
		c1.5,0.1,1.3,2.8,1.3,2.8l-1.8-0.2c-0.1,0-4.7-0.7-4.3,2.6s5.5,2.7,5.5,2.7l-0.1,0.9L84.7,162.6z M78.4,158.5
		c0-1.5,3.6-0.6,3.6-0.6l-0.1,1.4C81.6,159.4,78.4,160,78.4,158.5z"/>
</g>
<g>
	<path class="st18" d="M495.6,219.8H298.1c-4,0-7.1,3.1-7.1,7.1v0.4c0,4,3.1,7.1,7.1,7.1h198c4,0,7.1-3.1,7.1-7.1v-0.4
		C502.7,222.9,499.6,219.8,495.6,219.8z"/>
	<path class="st19" d="M485.5,233.9l-9.3,6.6l-6.2,4.4c-1.8,0.9-3.5,1.8-5.3,1.8H328.9c-1.8,0-4-0.4-5.3-1.8l-6.2-4.4l-9.3-6.6
		H485.5z"/>
	<polygon class="st20" points="485.5,233.9 476.2,240.9 317.5,240.9 308.2,233.9 	"/>
	<path class="st21" d="M484.6,89.7H309.1c-4.9,0-8.8,4-8.8,8.8v121.3h193.6V98.5C493.4,93.7,489.4,89.7,484.6,89.7z"/>
	<rect x="311.5" y="100.9" class="st22" width="170.7" height="107.6"/>
	<path class="st20" d="M403.4,225.1h-13.2c-1.3,0-2.2,0.9-2.2,2.2c0,1.3,0.9,2.2,2.2,2.2h13.2c1.3,0,2.2-0.9,2.2-2.2
		C405.2,225.9,404.3,225.1,403.4,225.1z"/>
	<g>
	</g>
	<g>
	</g>
	<g>
	</g>
	<g>
	</g>
	<g>
	</g>
	<g>
	</g>
	<g>
	</g>
	<g>
	</g>
	<g>
	</g>
	<g>
	</g>
	<g>
	</g>
	<g>
	</g>
	<g>
	</g>
	<g>
	</g>
	<g>
	</g>
</g>
<g>
	<path class="st8" d="M354.1,142.8L354.1,142.8l0.8,0.8c0.3,1.2,0.7,2.7,1.3,4.5c0.1-0.4,0.2-0.9,0.3-1.4c0.3-2.2,0.6-3.6,0.8-4.2
		c1.5,0,2.2-0.1,2.3-0.1l3.5-0.1c0.4,0,0.7,0,0.9,0c0,0,0,0.1,0,0.1l0.8,0.7c0.2,0.7,0.5,3.3,0.9,7.9l0.1,1.5c0.2,2.7,0.4,5.1,0.5,7
		c-0.5,0.2-1.1,0.4-1.6,0.4h-3.9l-0.8-0.8h-0.1c0-0.3-0.1-0.6-0.1-0.9l-0.4,1.5c-0.3,0.1-0.7,0.1-1,0.2c-0.3,0-0.8,0.1-1.6,0.1
		c-0.7,0-1.2,0.1-1.6,0.2l-0.8-0.8c0,0-0.1,0-0.1,0c-0.1-0.3-0.2-0.6-0.4-1v1.1c0,0.5-0.3,0.8-1,0.8c-0.1,0-0.3,0-0.5-0.1
		c-0.2,0-0.4-0.1-0.5-0.1c-0.2,0-0.8,0-1.7,0c-0.3,0-0.5,0-0.5,0h-0.4c-0.3,0-0.6-0.1-0.8-0.3l-0.5-0.5c-0.1,0-0.2-0.1-0.3-0.3
		c0.3-1.3,0.5-3,0.6-5.2c0-1.2,0.1-2,0.1-2.4l0.2-3.4c0.1-2.1,0.4-3.7,0.9-4.7c0.8-0.3,1.6-0.5,2.4-0.6c0.2,0,0.4,0,0.5,0l0.6-0.1
		C353.3,142.9,353.8,142.8,354.1,142.8C354.1,142.8,354.1,142.8,354.1,142.8z M355.9,150.5c-0.9-2.7-1.6-5.1-2.2-7.2
		c-0.9,0.1-1.6,0.2-2.1,0.2c-0.8,0.1-1.5,0.2-2.1,0.5c-0.4,1-0.7,2.4-0.8,4.4l-0.3,5.7c-0.1,2.2-0.3,3.9-0.6,5c0,0,0.5,0,1.2,0
		c1.1,0,1.7,0,1.7,0c0.1,0,0.3,0,0.5,0.1c0.2,0,0.4,0.1,0.5,0.1c0.4,0,0.6-0.1,0.6-0.4c0-0.6,0-1.3,0-2.2l0.1-4
		c0.4,0.7,0.7,1.8,1,3.2c0.3,1.6,0.6,2.6,0.8,3.2c0.3,0,0.5,0,0.7-0.1c1.6-0.1,2.6-0.2,2.9-0.3c0.7-2.5,1.1-4.3,1.4-5.3
		c0.3,2.4,0.6,4.3,0.8,5.5h3.5c0.5,0,0.9-0.1,1.2-0.2c0-1.3-0.1-2.4-0.2-3.2l-0.4-5c-0.3-4.5-0.6-7-0.8-7.5c-0.3,0-1,0-2,0l-4,0.1
		c-0.1,0.5-0.4,1.8-0.6,3.8C356.7,148.4,356.4,149.6,355.9,150.5C356,150.5,355.9,150.5,355.9,150.5z"/>
	<path class="st8" d="M369.1,157.4c-0.1-0.1-0.1-0.1-0.2-0.2c-1.2-1.1-1.8-2.5-1.8-4.4c0-1,0.3-2.1,1-3.1c0.6-0.9,1.4-1.7,2.3-2.4
		c1-0.7,2-1.1,3-1.1c2,0,3.5,0.6,4.5,1.9l0.2,0.2c1.1,1.1,1.7,2.8,1.7,5.1c0,1.6-0.5,3-1.6,4.2c-1.1,1.2-2.5,1.8-4.1,1.8
		c-2,0-3.5-0.6-4.7-1.8L369.1,157.4z M377.5,148.3c-0.9-1.2-2.3-1.8-4.2-1.8c-0.9,0-1.8,0.3-2.8,1c-0.9,0.6-1.6,1.4-2.2,2.3
		c-0.6,1-1,2-1,3c0,1.8,0.6,3.2,1.7,4.2c1.1,1,2.5,1.5,4.3,1.5c1.5,0,2.8-0.6,3.9-1.7c1-1.1,1.6-2.4,1.6-3.9
		C378.8,150.9,378.4,149.4,377.5,148.3z M374.8,153.7c-0.4,0.6-1,0.9-1.7,0.9c-0.6,0-1.2-0.2-1.6-0.5c-0.4-0.4-0.6-0.9-0.6-1.5
		c0-0.7,0.2-1.3,0.8-1.9c0.5-0.7,1.1-1,1.8-1c0.6,0,1.1,0.2,1.5,0.6c0.3,0.4,0.5,0.9,0.5,1.5C375.4,152.5,375.2,153.2,374.8,153.7z
		 M374.8,150.7c-0.2-0.1-0.5-0.1-0.7-0.1c-0.6,0-1.1,0.3-1.5,0.9c-0.5,0.6-0.7,1.2-0.7,1.7c0,0.3,0,0.6,0.1,0.8
		c0.3,0.2,0.7,0.3,1.1,0.3c0.6,0,1.1-0.3,1.5-0.8c0.3-0.5,0.5-1,0.5-1.7C375,151.4,375,151,374.8,150.7z"/>
	<path class="st8" d="M382.2,157.4c-0.1-0.1-0.1-0.1-0.2-0.2c-1.2-1.1-1.8-2.5-1.8-4.4c0-1,0.3-2.1,1-3.1c0.6-0.9,1.4-1.7,2.3-2.4
		c1-0.7,2-1.1,3-1.1c2,0,3.5,0.6,4.5,1.9l0.2,0.2c1.1,1.1,1.7,2.8,1.7,5.1c0,1.6-0.5,3-1.6,4.2c-1.1,1.2-2.5,1.8-4.1,1.8
		c-2,0-3.5-0.6-4.7-1.8L382.2,157.4z M390.6,148.3c-0.9-1.2-2.3-1.8-4.2-1.8c-0.9,0-1.8,0.3-2.8,1c-0.9,0.6-1.6,1.4-2.2,2.3
		c-0.6,1-1,2-1,3c0,1.8,0.6,3.2,1.7,4.2c1.1,1,2.5,1.5,4.3,1.5c1.5,0,2.8-0.6,3.9-1.7c1-1.1,1.6-2.4,1.6-3.9
		C391.9,150.9,391.5,149.4,390.6,148.3z M387.9,153.7c-0.4,0.6-1,0.9-1.7,0.9c-0.6,0-1.2-0.2-1.6-0.5c-0.4-0.4-0.6-0.9-0.6-1.5
		c0-0.7,0.2-1.3,0.8-1.9c0.5-0.7,1.1-1,1.8-1c0.6,0,1.1,0.2,1.5,0.6c0.3,0.4,0.5,0.9,0.5,1.5C388.5,152.5,388.3,153.2,387.9,153.7z
		 M387.9,150.7c-0.2-0.1-0.5-0.1-0.7-0.1c-0.6,0-1.1,0.3-1.5,0.9c-0.5,0.6-0.7,1.2-0.7,1.7c0,0.3,0,0.6,0.1,0.8
		c0.3,0.2,0.7,0.3,1.1,0.3c0.6,0,1.1-0.3,1.5-0.8c0.3-0.5,0.5-1,0.5-1.7C388.1,151.4,388.1,151,387.9,150.7z"/>
	<path class="st9" d="M353.7,143.1l-4.3,0.7c0,0-0.1,0.2-0.4,1c-0.3,0.7-0.5,2.1-0.5,2.9s-0.3,4.1-0.3,4.8c0,0.7-0.2,5.9-0.5,6.3
		c-0.3,0.4,1.8,0.2,2.5,0.1c0.7,0,1.7,0.3,2,0.2s0.3-7.5,0.3-7.5l2.1,7.1l3.6-0.3l1.4-6.5l0.7,6.8l4.5-0.1l-1.3-16h-6.1l-1.4,8.1
		l-0.2,0L353.7,143.1z"/>
	
		<ellipse transform="matrix(0.3505 -0.9366 0.9366 0.3505 99.9068 448.3363)" class="st10" cx="373.2" cy="152.1" rx="2.7" ry="2.4"/>
	<path class="st11" d="M375.3,147c-2.8-1.1-6,0.6-7.2,3.7c-1.2,3.1,0.2,6.4,3,7.5c2.8,1.1,6-0.6,7.2-3.7S378.1,148.1,375.3,147z
		 M372.5,154.3c-0.5-0.3-0.6-1.3-0.1-2.3s1.4-1.5,1.9-1.2c0.5,0.3,0.6,1.3,0.1,2.3C373.9,154,373,154.6,372.5,154.3z"/>
	<path class="st8" d="M373.9,149.8c-0.9-0.3-2,0.4-2.5,1.6c-0.5,1.2-0.1,2.5,0.8,2.8c0.9,0.3,2-0.4,2.5-1.6
		C375.2,151.4,374.8,150.1,373.9,149.8z M374.4,153c-0.5,1-1.4,1.5-1.9,1.2c-0.5-0.3-0.6-1.3-0.1-2.3s1.4-1.5,1.9-1.2
		C374.9,151,374.9,152.1,374.4,153z"/>
	<path class="st12" d="M388.3,146.8c-2.8-1.1-6.1,0.6-7.2,3.7c-1.2,3.1,0.2,6.5,3,7.5s6.1-0.6,7.2-3.7
		C392.5,151.2,391.2,147.9,388.3,146.8z M385.5,154.1c-0.5-0.3-0.6-1.3-0.1-2.3c0.5-1,1.4-1.5,1.9-1.2c0.5,0.3,0.6,1.3,0.1,2.3
		C386.9,153.8,386.1,154.4,385.5,154.1z"/>
	<path class="st8" d="M386.9,149.6c-0.9-0.3-2,0.4-2.5,1.6c-0.5,1.2-0.1,2.5,0.8,2.9c0.9,0.3,2-0.4,2.5-1.6S387.8,150,386.9,149.6z
		 M387.5,152.9c-0.5,1-1.4,1.5-1.9,1.2c-0.5-0.3-0.6-1.3-0.1-2.3c0.5-1,1.4-1.5,1.9-1.2C387.9,150.9,388,151.9,387.5,152.9z"/>
	<path class="st13" d="M426.6,150.9"/>
	<g>
		<path class="st8" d="M432,153.4c-0.1-7.6-7.8-7.5-12.8-6.4c0.1,2.1,0.2,5.7,0.3,7.8c0.2,3.8,0.4,7.6,0.6,11.4c0,1.1,0.2,1.8,0.3,3
			c0,0.4,0.1,0.6,0.4,0.9c0.3,0.3,0.8,0.3,1.2,0.3c0.9,0,1.9-0.1,2.7-0.6c0.7-0.5,0.5-1,0.5-1.7c0-0.2,0-0.4,0-0.6
			c-0.1-1-0.1-2-0.2-2.9c-0.1-1.3-0.1-2.5-0.2-3.8C424.8,160.6,432.1,159.7,432,153.4z M424,158.2c0,0-0.9-7.4-0.9-7.4
			c0-0.2,1.6-0.1,1.8-0.1c1.4,0,2.7,0.4,3.6,1.5c0.5,0.6,0.7,1.4,0.7,2.2c0,0.4,0,0.9-0.2,1.3c-0.5,1.1-1.8,1.9-2.9,2.2
			C425.9,158.1,424,158.4,424,158.2z"/>
	</g>
	<g>
		<path class="st14" d="M431.1,152.2c-0.3-7.2-7.4-6.5-11.8-5.4l1.2,22.1l3.8-0.5l-0.4-9.3C423.9,159.2,431.4,159.4,431.1,152.2z
			 M423.4,156.1c0,0-0.8-6.9-0.8-6.9c0-0.2,1.9-0.1,2.1-0.1c1.1,0.1,2.1,0.7,2.7,1.6c0.4,0.5,0.5,1.1,0.5,1.7c0,0.4-0.1,1-0.2,1.4
			c-0.4,0.9-1.1,1.5-1.9,1.8C425.7,155.7,423.4,156.3,423.4,156.1z"/>
	</g>
	<path class="st13" d="M441.3,150.9"/>
	<g>
		<g>
			<g>
				<g>
					<path d="M446.7,153.4c-0.1-7.6-7.8-7.5-12.8-6.4c0.1,2.1,0.2,5.7,0.3,7.8c0.2,3.8,0.4,7.6,0.6,11.4c0,1.1,0.2,1.8,0.3,3
						c0,0.4,0.1,0.6,0.4,0.9c0.3,0.3,0.8,0.3,1.2,0.3c0.9,0,1.9-0.1,2.7-0.6c0.7-0.5,0.5-1,0.5-1.7c0-0.2,0-0.4,0-0.6
						c-0.1-1-0.1-2-0.2-2.9c-0.1-1.3-0.1-2.5-0.2-3.8C439.5,160.6,446.8,159.7,446.7,153.4z M438.7,158.2c0,0-0.9-7.4-0.9-7.4
						c0-0.2,1.6-0.1,1.8-0.1c1.4,0,2.7,0.4,3.6,1.5c0.5,0.6,0.7,1.4,0.7,2.2c0,0.4,0,0.9-0.2,1.3c-0.5,1.1-1.8,1.9-2.9,2.2
						C440.6,158.1,438.8,158.4,438.7,158.2z"/>
				</g>
				<g>
					<path class="st10" d="M446.7,153.4c-0.1-7.6-7.8-7.5-12.8-6.4c0.1,2.1,0.2,5.7,0.3,7.8c0.2,3.8,0.4,7.6,0.6,11.4
						c0,1.1,0.2,1.8,0.3,3c0,0.4,0.1,0.6,0.4,0.9c0.3,0.3,0.8,0.3,1.2,0.3c0.9,0,1.9-0.1,2.7-0.6c0.7-0.5,0.5-1,0.5-1.7
						c0-0.2,0-0.4,0-0.6c-0.1-1-0.1-2-0.2-2.9c-0.1-1.3-0.1-2.5-0.2-3.8C439.5,160.6,446.8,159.7,446.7,153.4z M438.7,158.2
						c0,0-0.9-7.4-0.9-7.4c0-0.2,1.6-0.1,1.8-0.1c1.4,0,2.7,0.4,3.6,1.5c0.5,0.6,0.7,1.4,0.7,2.2c0,0.4,0,0.9-0.2,1.3
						c-0.5,1.1-1.8,1.9-2.9,2.2C440.6,158.1,438.8,158.4,438.7,158.2z"/>
				</g>
			</g>
		</g>
	</g>
	<g>
		<g>
			<g>
				<g>
					<path class="st15" d="M445.8,152.2c-0.3-7.2-7.4-6.5-11.8-5.4l1.2,22.1l3.8-0.5l-0.4-9.3C438.6,159.2,446.2,159.4,445.8,152.2z
						 M438.2,156.1c0,0-0.8-6.9-0.8-6.9c0-0.2,1.9-0.1,2.1-0.1c1.1,0.1,2.1,0.7,2.7,1.6c0.4,0.5,0.5,1.1,0.5,1.7
						c0,0.4-0.1,1-0.2,1.4c-0.4,0.9-1.1,1.5-1.9,1.8C440.4,155.7,438.2,156.3,438.2,156.1z"/>
				</g>
				<g>
					<path class="st10" d="M445.8,152.2c-0.3-7.2-7.4-6.5-11.8-5.4l1.2,22.1l3.8-0.5l-0.4-9.3C438.6,159.2,446.2,159.4,445.8,152.2z
						 M438.2,156.1c0,0-0.8-6.9-0.8-6.9c0-0.2,1.9-0.1,2.1-0.1c1.1,0.1,2.1,0.7,2.7,1.6c0.4,0.5,0.5,1.1,0.5,1.7
						c0,0.4-0.1,1-0.2,1.4c-0.4,0.9-1.1,1.5-1.9,1.8C440.4,155.7,438.2,156.3,438.2,156.1z"/>
				</g>
			</g>
		</g>
	</g>
	<path class="st8" d="M394.6,148.1l-0.6,10l0.9,0.7l2.8-0.3c0,0-1-4.6-0.3-6c0,0,0.7-2.6,2.1-2.5s1.3,2.2,1.2,3.1c0,0.7-1.8,5-1.8,5
		l0.9,0.7l3.2,0.4c0,0,0-6.3,0.5-7.8c0,0,0.3-1.4,1.3-1.2c1,0.2,1,1.6,1,2.4c0,0.9-0.2,1.7-0.3,2.6c-0.2,1-1.3,3.1-1.3,3.1l0.9,0.7
		l3.3-0.3c0-0.5,0-1.1-0.1-1.6c0-1-0.1-2,0-3c0-0.9,0.2-1.7,0-2.6c-0.1-0.7-0.4-1.6-0.8-2.1c-0.9-1.2-1.6-1.5-2.7-1.5
		c-0.4,0-0.8,0-1.1,0.1c0,0-1.1,0.2-1.6,1.1c0,0-1-1.1-2.5-1.1c-1.3,0-2.5,0.9-2.5,0.9l0-0.6L394.6,148.1z"/>
	<path class="st16" d="M393.7,147.5l0.3,10.7l2.8-0.3c0,0-1-4.6-0.3-6c0,0,0.7-2.6,2.1-2.5s1.3,2.2,1.2,3.1c0,0.8-1,5.6-1,5.6
		l3.2,0.4c0,0,0-6.3,0.5-7.8c0,0,0.3-1.4,1.3-1.2c1,0.2,1,1.6,1,2.4c0,0.9-0.2,1.7-0.3,2.6c-0.2,1.3-0.5,3.4-0.4,3.7l3.3-0.3
		c0-0.5,0-1.1-0.1-1.6c0-1-0.1-2,0-3c0-0.9,0.2-1.7,0-2.6c-0.1-0.7-0.4-1.6-0.8-2.1c-0.9-1.2-1.6-1.5-2.7-1.5c-0.4,0-0.8,0-1.1,0.1
		c0,0-1.1,0.2-1.6,1.1c0,0-1-1.1-2.5-1.1c-1.3,0-2.5,0.9-2.5,0.9l0-0.6L393.7,147.5z"/>
	<path class="st8" d="M417.9,159.7l-0.2-6.7c0-0.4-0.1-5.2-3.4-5.3c-3.2-0.1-4.3,3.9-4.3,3.9l0.3,0.7l2.5,0.2
		c0.1-0.5-0.1-2.2,1.4-2.1c1.5,0.1,1.3,2.8,1.3,2.8l-1.8-0.2c-0.1,0-4.7-0.7-4.3,2.6c0.4,3.3,5.5,2.7,5.5,2.7l-0.1,0.9L417.9,159.7z
		 M411.6,155.6c0-1.5,3.6-0.6,3.6-0.6l-0.1,1.4C414.7,156.5,411.6,157.1,411.6,155.6z"/>
	<path class="st17" d="M417.6,158.9l-0.2-6.7c0-0.4-0.1-5.2-3.4-5.3c-3.9-0.1-4,4.6-4,4.6l2.5,0.2c0.1-0.5-0.1-2.2,1.4-2.1
		c1.5,0.1,1.3,2.8,1.3,2.8l-1.8-0.2c-0.1,0-4.7-0.7-4.3,2.6s5.5,2.7,5.5,2.7l-0.1,0.9L417.6,158.9z M411.3,154.9
		c0-1.5,3.6-0.6,3.6-0.6l-0.1,1.4C414.5,155.8,411.3,156.4,411.3,154.9z"/>
</g>
</svg>
